<svg width="48" height="48" viewBox="0 0 48 48" fill="none" xmlns="http://www.w3.org/2000/svg">
<rect x="0.338942" y="0.338942" width="46.7739" height="46.7739" rx="23.387" fill="white"/>
<rect x="0.338942" y="0.338942" width="46.7739" height="46.7739" rx="23.387" stroke="#BBBBBB" stroke-width="0.677883"/>
<path d="M37.0197 21.0707H35.9276V21.0144H23.7258V26.4375H31.3879C30.2701 29.5944 27.2664 31.8606 23.7258 31.8606C19.2335 31.8606 15.5913 28.2183 15.5913 23.726C15.5913 19.2336 19.2335 15.5913 23.7258 15.5913C25.7994 15.5913 27.686 16.3736 29.1224 17.6514L32.9572 13.8166C30.5358 11.56 27.2969 10.1683 23.7258 10.1683C16.2386 10.1683 10.1682 16.2387 10.1682 23.726C10.1682 31.2132 16.2386 37.2837 23.7258 37.2837C31.213 37.2837 37.2834 31.2132 37.2834 23.726C37.2834 22.8169 37.1899 21.9296 37.0197 21.0707Z" fill="#FFC107"/>
<path d="M11.7317 17.4155L16.186 20.6823C17.3913 17.6982 20.3103 15.5913 23.7261 15.5913C25.7997 15.5913 27.6863 16.3736 29.1227 17.6514L32.9575 13.8166C30.5361 11.5599 27.2972 10.1682 23.7261 10.1682C18.5186 10.1682 14.0026 13.1082 11.7317 17.4155Z" fill="#FF3D00"/>
<path d="M23.7259 37.2837C27.2278 37.2837 30.4098 35.9436 32.8156 33.7641L28.6195 30.2134C27.2583 31.2444 25.5663 31.8606 23.7259 31.8606C20.1996 31.8606 17.2054 29.6121 16.0774 26.4742L11.6562 29.8805C13.9 34.2712 18.4567 37.2837 23.7259 37.2837Z" fill="#4CAF50"/>
<path d="M37.02 21.0707H35.9279V21.0144H23.7261V26.4375H31.3881C30.8513 27.9539 29.8758 29.2616 28.6177 30.214C28.6183 30.2133 28.619 30.2133 28.6197 30.2126L32.8158 33.7634C32.5189 34.0332 37.2837 30.5048 37.2837 23.7259C37.2837 22.8169 37.1901 21.9295 37.02 21.0707Z" fill="#1976D2"/>
</svg>
