<svg width="199" height="38" viewBox="0 0 199 38" fill="none" xmlns="http://www.w3.org/2000/svg">
<path d="M1.38946 3.56204L10.526 3.37458C17.6218 3.46831 21.1721 3.62452 21.1769 3.84322C21.1789 3.93695 21.0862 3.98381 20.8987 3.98381L20.9018 4.1244H20.9955C21.3012 3.81198 22.0773 3.57766 23.3239 3.42144L23.5572 3.37458C23.6565 3.62452 23.7078 3.8276 23.7112 3.98381C23.7502 5.76463 23.8782 7.32676 24.0952 8.67018L23.2446 10.4979C22.8737 10.6853 22.5164 10.7791 22.1726 10.7791C21.1726 10.7791 20.6661 10.4822 20.6531 9.88864L20.651 9.79491C20.7088 9.57622 20.8595 9.32628 21.1034 9.04509C20.7888 8.95137 20.6267 8.68581 20.6172 8.24841C20.6048 7.68605 20.3643 7.40486 19.8955 7.40486C19.8901 7.15492 19.8561 7.02995 19.7936 7.02995H18.528L18.529 7.07682C18.531 7.17054 18.7206 7.26427 19.0976 7.358L19.1018 7.54545L18.7288 7.63918L12.9601 7.49859H9.9601C7.92885 7.49859 6.91597 7.62356 6.92144 7.8735C7.07769 7.8735 7.31392 10.8103 7.63014 16.6839C7.85368 16.9026 8.04358 17.0119 8.19983 17.0119H8.52795L10.8686 16.8713L14.6758 17.34C14.9883 17.34 15.1346 16.887 15.1147 15.9809C15.1058 15.5748 15.4906 15.3092 16.2691 15.1842L16.5921 14.9499C16.9984 14.9499 17.2368 16.5589 17.3073 19.7769L17.3494 21.6983C17.3556 21.9795 17.2812 22.1513 17.1263 22.2138C16.7472 22.0264 16.1341 21.8545 15.2869 21.6983C15.1931 21.6983 15.0263 21.214 14.7863 20.2455C14.7795 19.9331 13.5729 19.7769 11.1667 19.7769C8.94792 19.7769 7.84059 19.8706 7.8447 20.0581L7.81426 20.8079L8.20026 25.588C8.17747 27.4001 8.07758 29.259 7.90059 31.1648L8.09015 31.2585C9.43184 31.1648 11.1784 31.0086 13.3299 30.7899H13.3768C15.0018 30.7899 17.2399 30.9617 20.0912 31.3054H20.1849C20.4349 31.3054 20.5721 31.1492 20.5965 30.8367H20.8778L21.3558 31.2585L21.3965 30.9773C21.3842 30.415 21.2686 30.1338 21.0499 30.1338L20.7259 30.3212C20.4086 30.1025 20.1667 29.7589 20.0001 29.2902C19.9926 28.9466 20.5656 28.7122 21.7191 28.5873C21.8129 28.5873 22.2076 28.7747 22.9033 29.1496C23.2471 29.1496 23.4261 29.4777 23.4405 30.1338C23.4884 32.3208 23.6059 34.1172 23.793 35.5231L23.6626 35.9917H23.4282C23.2054 35.8043 22.3898 35.6637 20.9815 35.57C20.9788 35.445 15.4281 35.2732 4.32958 35.0545C3.64208 35.0545 3.29217 34.7733 3.27984 34.2109C3.15211 34.086 3.07728 33.5236 3.05537 32.5238L3.22028 31.4928L3.21001 31.0242L3.34653 30.8367H3.48715C3.77457 31.1179 4.01202 31.2585 4.19952 31.2585H4.34015C4.99297 31.1023 5.31596 30.868 5.30912 30.5556L4.79577 19.9643C4.79098 19.7456 4.61021 19.3395 4.25345 18.7459C4.3472 18.7459 4.40681 15.7622 4.4323 9.79491C4.52194 9.60746 4.56197 9.29503 4.55238 8.85764L4.54828 8.67018C4.52979 7.82664 4.02055 7.40486 3.02055 7.40486L1.84148 7.07682L1.23416 7.17054C0.734164 7.17054 0.468759 6.46759 0.43795 5.06168L0.390048 5.01481C0.400075 4.04629 0.717588 3.56204 1.34259 3.56204H1.38946ZM1.63513 4.07754H1.44763L1.44866 4.1244L1.93282 4.82736C2.14472 4.51493 2.3288 4.35872 2.48505 4.35872L2.8142 4.40558L2.9538 4.35872C2.63719 4.17126 2.19763 4.07754 1.63513 4.07754ZM4.12567 4.35872C3.90761 4.38996 3.7996 4.45245 3.80165 4.54617C3.80371 4.6399 3.85161 4.68677 3.94536 4.68677L4.36415 4.54617L4.36005 4.35872H4.12567ZM8.34545 4.40558H8.20482L8.20688 4.49931H8.3475L8.34545 4.40558ZM4.78706 4.59304L4.65157 4.82736L4.65259 4.87422C4.7192 5.06168 4.89313 5.1554 5.17438 5.1554H5.73688L5.73277 4.96795C5.32104 4.71801 5.02143 4.59304 4.83393 4.59304H4.78706ZM7.09317 5.01481H6.8588L6.85983 5.06168C6.92575 5.21789 7.06809 5.29599 7.28684 5.29599H7.52121L7.52018 5.24913C7.45426 5.09292 7.31192 5.01481 7.09317 5.01481ZM19.3306 5.1554L17.6442 5.20227L17.6462 5.29599L20.3253 5.62404C20.4183 5.5928 20.4944 5.49907 20.5535 5.34286L20.5504 5.20227L19.3306 5.1554ZM8.97331 5.24913C8.97605 5.3741 9.25867 5.43659 9.82117 5.43659C9.81843 5.31162 9.53581 5.24913 8.97331 5.24913ZM6.79791 6.51445C6.86589 6.76439 7.02488 6.88936 7.27488 6.88936H7.32175C8.53982 6.85812 9.14645 6.73315 9.14166 6.51445C9.13755 6.327 8.74487 6.23327 7.96362 6.23327H7.823C7.1355 6.23327 6.7938 6.327 6.79791 6.51445ZM10.6875 6.46759L10.5948 6.51445C10.6288 6.63942 10.7395 6.70191 10.927 6.70191H10.9739C11.1926 6.70191 11.3163 6.63942 11.3448 6.51445L11.2031 6.46759H10.6875ZM4.17497 6.60818H3.09684L3.09889 6.70191H4.17702L4.17497 6.60818ZM21.2765 8.389L21.2775 8.43587L21.4212 8.57646C21.515 8.57646 21.5893 8.40462 21.6443 8.06096L21.5902 7.73291H21.4496C21.3246 7.73291 21.2669 7.95161 21.2765 8.389ZM22.2855 9.51373L22.3803 9.5606L22.524 9.70119L22.525 9.74805C22.7125 9.74805 22.8025 9.57622 22.795 9.23255L22.7929 9.13882H22.6054C22.513 9.20131 22.4064 9.32628 22.2855 9.51373ZM6.10953 9.32628L6.01989 9.51373L6.0281 9.88864C6.09608 10.1386 6.22382 10.2636 6.41132 10.2636L6.49993 10.0292L6.49891 9.98237C6.49138 9.6387 6.36158 9.42 6.10953 9.32628ZM6.44213 11.6695L6.16601 11.9038L6.1732 12.2318L6.36481 12.4193H6.50543L6.5961 12.2787L6.44213 11.6695ZM8.0746 17.7149L7.93809 17.9023L7.93911 17.9492H8.31411L8.31206 17.8555L8.12148 17.7149H8.0746ZM11.3661 18.1835H11.2255L11.2286 18.3241L11.3713 18.4178H11.465L11.463 18.3241L11.3661 18.1835ZM12.0255 18.3241H11.838L11.84 18.4178H12.0275L12.0255 18.3241ZM12.6348 18.3241H12.4005L12.5921 18.5116H12.7796L12.7775 18.4178L12.6348 18.3241ZM5.95261 21.4171H5.76511L5.67752 21.6983L5.68676 22.1201H5.82739L5.96699 22.0732L5.95261 21.4171ZM7.06396 25.0725H6.92334L6.92642 25.2131H7.06704L7.06396 25.0725ZM7.08897 28.353H6.94835L6.90764 28.6341L6.92099 29.2434L6.96889 29.2902L6.96992 29.3371C7.18867 29.3371 7.29428 29.1653 7.28674 28.8216C7.28058 28.5404 7.21466 28.3842 7.08897 28.353ZM22.2614 29.8057L22.4051 29.9463C22.56 29.8838 22.6368 29.8214 22.6354 29.7589L22.6334 29.6651L22.5365 29.5246C22.3504 29.587 22.2587 29.6808 22.2614 29.8057ZM7.02948 32.0552H6.88885L6.89194 32.1958H7.03256L7.02948 32.0552ZM7.22622 32.477L7.08868 32.6176L7.08971 32.6644C7.12369 32.7894 7.29694 32.8519 7.60944 32.8519H7.84381L8.12301 32.7582L8.12096 32.6644C8.08697 32.5395 7.97622 32.477 7.78872 32.477H7.22622ZM10.7928 32.6644H10.3241L10.3261 32.7582L10.423 32.8987H10.6105L10.8907 32.8519L10.8886 32.7582L10.7928 32.6644ZM20.8241 32.6644L20.6417 32.8987L20.6427 32.9456C20.6767 33.0706 20.7875 33.1331 20.975 33.1331C21.2868 33.1018 21.4413 33.0237 21.4386 32.8987L21.4376 32.8519L21.3866 32.6644H20.8241ZM12.7188 32.8519H11.6407L11.6427 32.9456L12.7239 33.0862H15.4896C15.4861 32.93 14.5626 32.8519 12.7188 32.8519ZM5.78542 33.0393L5.27082 33.0862L5.27288 33.1799C5.3388 33.3361 5.46551 33.4142 5.65301 33.4142H6.12176L6.25828 33.2268L6.25725 33.1799C6.2552 33.0862 6.1448 33.0393 5.92605 33.0393H5.78542ZM17.7396 33.0862H17.2708L17.2718 33.1331C17.2753 33.2893 18.0273 33.383 19.528 33.4142L19.526 33.3205C18.96 33.1643 18.3646 33.0862 17.7396 33.0862ZM4.30391 33.8829H4.11641L4.12462 34.2578L4.2673 34.3515H4.31418L4.30391 33.8829ZM22.4456 33.9297H21.9768L21.9809 34.1172L22.4996 34.2578H22.6402L22.7309 34.1172L22.7289 34.0235L22.4456 33.9297ZM18.1902 34.3984L18.662 34.539H19.0839C19.3027 34.539 19.4263 34.4765 19.4548 34.3515H19.3611L18.8434 34.2578C18.4072 34.3203 18.1895 34.3671 18.1902 34.3984ZM14.5798 34.3515H14.2986L14.2996 34.3984L14.3964 34.539H15.0995L15.0965 34.3984L14.5798 34.3515ZM10.8777 34.3984L10.6943 34.5858L10.6974 34.7264H10.9318L11.0224 34.5858L11.0214 34.539L10.9246 34.3984H10.8777ZM39.1067 0.469028L41.1682 0.422164C42.4549 0.672104 43.0996 0.859559 43.1024 0.984529C43.1649 0.984529 43.2373 1.43755 43.3196 2.34358C43.6723 2.74973 43.85 3.01529 43.8527 3.14026C43.7293 4.6399 43.6558 7.70167 43.6321 12.3256C43.5696 12.3256 43.5418 12.4818 43.5486 12.7942C43.3021 12.9504 43.1808 13.1222 43.1849 13.3097L43.2014 14.0595C43.2151 14.6844 43.0746 15.4029 42.7799 16.2152L42.7474 16.8713C42.7501 16.9963 42.924 17.09 43.2692 17.1525L43.2763 17.4806C42.8945 21.4484 42.717 24.0415 42.7437 25.26C42.7752 26.6971 42.6972 27.4157 42.5097 27.4157L42.5117 27.5094C42.6992 27.5094 42.8131 27.7125 42.8532 28.1186L42.8135 28.4467L42.8176 28.6341C42.8306 29.2277 42.6746 30.6649 42.3496 32.9456L42.3732 34.0235C43.9433 34.3671 44.7344 34.8202 44.7468 35.3825L44.5175 35.6168L44.5268 36.0386L44.7694 36.4135C44.5337 37.0696 43.6503 37.3977 42.1191 37.3977H41.8378L41.5952 37.0228H41.0796L39.8201 37.3039L38.0378 37.2571C37.9128 37.2571 37.7548 36.4604 37.5636 34.867L37.6245 33.3674C37.2182 33.3674 36.5851 33.711 35.7252 34.3984C33.1629 35.8355 30.8988 36.6166 28.9328 36.7416C27.11 36.2729 25.4652 35.3669 23.9982 34.0235C23.5192 33.5548 23.0188 32.8206 22.4968 31.8209C21.9172 31.0398 21.6257 30.5712 21.6223 30.415L21.6182 30.2275H21.7588C21.981 30.3837 22.3989 30.9148 23.0125 31.8209L23.2479 31.8677L23.2937 31.8209L23.2804 31.2116C23.2667 30.5868 22.9221 29.837 22.2467 28.9622H22.0123C21.8248 28.9622 21.7216 29.2434 21.7027 29.8057H21.5621L21.4632 29.5714C21.499 28.353 21.5284 27.5563 21.5514 27.1814H21.8327L21.8888 27.6031H21.9825C22.1374 27.5407 22.2121 27.3844 22.2066 27.1345L22.1871 26.2441L22.0903 26.1035C21.9966 26.1035 21.9524 26.2285 21.9579 26.4784L21.6828 26.7596C21.6203 26.7596 21.571 26.6502 21.535 26.4315C21.4836 24.0884 22.1945 21.589 23.6676 18.9333C24.3589 17.6836 25.0558 16.6839 25.7581 15.9341C26.7382 15.028 28.3064 14.575 30.4627 14.575H30.8845C34.197 14.575 36.919 15.4342 39.0504 17.1525L39.3826 17.34H39.5233C39.7744 15.9653 39.9793 12.4818 40.138 6.88936C40.2888 6.63942 40.411 6.51445 40.5048 6.51445C39.4904 5.85836 38.7957 5.53031 38.4207 5.53031C38.1395 5.53031 37.944 4.45245 37.8342 2.29671C37.8954 2.23423 38.1443 2.18737 38.5812 2.15612L38.577 1.96867C38.5431 1.8437 38.4167 1.78121 38.1979 1.78121C38.0396 1.68749 37.9591 1.57814 37.9564 1.45317C37.9495 1.14074 38.3055 0.984529 39.0242 0.984529L39.0201 0.797074L38.8285 0.609619L38.8265 0.515892L39.1067 0.469028ZM39.1977 2.48417L39.1539 2.62476L39.155 2.67162H39.7175L39.7164 2.62476L39.5727 2.48417H39.1977ZM41.833 2.95281L41.7423 3.0934L41.7433 3.14026H42.4465L42.4434 2.99967L42.1142 2.95281H41.833ZM40.3994 3.84322L40.4962 3.98381C41.2455 3.95257 41.6185 3.85884 41.615 3.70263L41.4245 3.56204H40.862C40.6432 3.56204 40.489 3.65576 40.3994 3.84322ZM39.1765 3.65576L39.0858 3.79635L39.0879 3.89008L39.4181 3.98381C39.6056 3.98381 39.7136 3.92132 39.7421 3.79635L39.5984 3.65576H39.1765ZM29.0362 15.7935L28.8997 15.9809L28.9049 16.2152L29.0475 16.309H29.2819L29.5122 16.1215L29.5091 15.9809L29.3175 15.7935H29.0362ZM31.8132 16.309L31.911 16.4964H33.9735L33.9694 16.309C33.7778 16.1215 33.2598 16.0122 32.4154 15.9809H31.9466C31.8535 16.0122 31.8091 16.1215 31.8132 16.309ZM43.0142 16.2152L43.0091 15.9809H43.2435L43.2486 16.2152H43.0142ZM25.8806 17.2462L25.8847 17.4337L25.9795 17.4806H26.167C27.2546 17.1994 27.7942 16.8713 27.786 16.4964C27.752 16.3715 27.5944 16.309 27.3132 16.309H27.0788C26.61 16.309 26.2106 16.6214 25.8806 17.2462ZM35.9484 16.7776L35.2932 16.8245H35.1995L35.2025 16.9651C35.9594 17.2775 36.4472 17.4337 36.6659 17.4337H36.7128C36.706 17.1213 36.4512 16.9026 35.9484 16.7776ZM40.5005 17.0119H40.313C40.3198 17.3244 40.3857 17.4806 40.5107 17.4806L40.5566 17.4337L40.5535 17.2931L40.5005 17.0119ZM30.6283 17.8555L30.5366 17.9492L30.6314 17.9961H30.8189L30.9575 17.9023L30.9564 17.8555H30.6283ZM23.9033 21.1359L23.9064 21.2765H24.047C24.2332 21.214 24.4284 20.8548 24.6328 20.1987C25.5415 18.8865 26.1522 18.2304 26.4647 18.2304L26.645 17.9023H26.3637C26.2387 17.9023 25.7299 18.2148 24.8374 18.8396C24.2628 19.7144 23.9514 20.4798 23.9033 21.1359ZM29.0886 18.1835L28.998 18.3241H29.4667L29.6053 18.2304L29.6042 18.1835H29.0886ZM31.5313 18.4178L31.626 18.4647H31.7198L32.748 18.3241L32.7459 18.2304L32.4167 18.1835C31.8237 18.2148 31.5285 18.2929 31.5313 18.4178ZM34.0105 18.1835L33.9198 18.3241L34.0635 18.4647H34.3448L34.4355 18.3241C34.3709 18.2304 34.2449 18.1835 34.0574 18.1835H34.0105ZM36.1678 18.2304H35.9803L36.1719 18.4178L36.2636 18.3241L36.1678 18.2304ZM37.2052 18.5116H36.6896C36.6923 18.6365 37.1495 18.824 38.0613 19.0739H38.1081L38.1051 18.9333C37.8489 18.6522 37.5489 18.5116 37.2052 18.5116ZM24.3273 27.65L24.3427 28.353C24.3523 28.7904 24.9738 30.0557 26.2072 32.1489C27.0924 32.6176 28.0351 32.8519 29.0351 32.8519C31.1913 32.8519 33.2738 32.3364 35.2824 31.3054C36.0981 30.0244 36.8184 29.384 37.4434 29.384C37.7797 29.0403 38.129 27.8687 38.4914 25.8692C38.7291 25.3068 38.8414 24.7288 38.8284 24.1352L38.8182 23.6666C38.7894 22.3544 38.6031 21.6983 38.2594 21.6983C37.5263 21.0422 37.1583 20.6517 37.1556 20.5267L37.3369 20.2455C37.3342 20.1206 36.877 19.9331 35.9652 19.6832L35.6799 19.4957L35.7247 19.402H36.4278L36.4268 19.3551C36.42 19.0427 34.7131 18.8709 31.3061 18.8396L30.6468 18.699C28.1523 18.949 26.9095 19.277 26.9184 19.6832C25.7922 21.0578 25.0792 22.7449 24.7793 24.7444C24.4615 25.9317 24.3109 26.9002 24.3273 27.65ZM37.8526 20.2455L37.6692 20.433L37.6774 20.8079L37.9169 21.0422H38.0575C38.1818 21.011 38.2416 20.886 38.2368 20.6673C38.2327 20.4798 38.1359 20.3393 37.9463 20.2455H37.8526ZM23.526 25.3068C23.528 25.4005 23.5759 25.4474 23.6697 25.4474C23.8884 25.4474 24.0378 25.135 24.1179 24.5101L24.1117 24.2289H23.9711C23.8149 24.2289 23.6665 24.5882 23.526 25.3068ZM38.5873 32.3832L38.5935 32.6644C38.781 32.6644 38.8778 32.805 38.8839 33.0862H38.9777L39.2069 32.8519L39.1987 32.477C39.0717 32.3832 39.0057 32.227 39.001 32.0083H38.8603C38.6735 32.0396 38.5825 32.1645 38.5873 32.3832ZM35.0799 32.7582L35.084 32.9456H35.1309C35.4406 32.8206 35.6862 32.6176 35.8675 32.3364L35.8655 32.2426L35.7697 32.1489H35.6759C35.4592 32.2426 35.2605 32.4457 35.0799 32.7582ZM30.4057 33.3674L30.4088 33.508H30.9713C33.0311 33.383 34.1652 33.0862 34.3737 32.6176L34.3706 32.477H34.23C31.8326 32.8831 30.5579 33.1799 30.4057 33.3674ZM41.1247 32.6644H41.0778L41.0392 33.0393L41.0525 33.6486L41.1494 33.7892H41.2431L41.3338 33.6486L41.3235 33.1799C41.3167 32.8675 41.2504 32.6957 41.1247 32.6644ZM24.5402 33.0862H24.3527L24.3558 33.2268C24.3599 33.4142 24.8786 33.5548 25.9119 33.6486L25.9088 33.508C25.1839 33.2268 24.7277 33.0862 24.5402 33.0862ZM25.6348 33.836L25.4962 33.9297C25.5037 34.2734 26.4331 34.6171 28.2844 34.9607H28.5188L28.6105 34.867L28.6094 34.8202C28.6019 34.4765 27.7041 34.1484 25.916 33.836H25.6348ZM38.9045 34.0235L38.6742 34.2109L38.6763 34.3047H38.8169L39.0003 34.1172L38.9982 34.0235H38.9045ZM31.6002 34.3984L31.6023 34.4921L31.7449 34.5858L32.0262 34.5858C33.0248 34.5234 33.5228 34.4296 33.52 34.3047L33.3773 34.2109H32.4867C31.893 34.2109 31.5975 34.2734 31.6002 34.3984ZM41.4898 34.3515H41.2554L41.2585 34.4921L41.3543 34.5858H41.5887L41.5866 34.4921L41.4898 34.3515ZM28.4894 35.7574L28.4924 35.898L28.5424 36.0386H29.1518C29.6518 36.0386 30.3838 35.9293 31.3477 35.7106L31.3457 35.6168L29.9832 35.4762C28.9846 35.5387 28.4866 35.6325 28.4894 35.7574ZM42.2727 35.8512C42.3067 35.9761 42.4643 36.0386 42.7455 36.0386H43.683L44.0091 35.9449L44.007 35.8512C44.005 35.7574 43.8158 35.6793 43.4394 35.6168C42.6588 35.6481 42.2699 35.7262 42.2727 35.8512ZM45.3754 12.5599L48.5865 13.6377C48.628 14.1064 48.8265 14.6063 49.1819 15.1374L49.2869 15.6529C49.0495 17.6524 49.0624 21.8077 49.3257 28.1186C49.3456 29.0247 49.7336 29.6183 50.4897 29.8995L50.8343 30.6493C50.8384 30.8367 51.8734 31.0086 53.9393 31.1648H54.1268C54.7831 31.1648 55.5802 30.4618 56.5181 29.0559C57.2517 28.3061 57.7387 27.7125 57.9791 27.2751H58.2135L58.2073 26.9939L58.1084 26.7596C58.2898 26.4784 58.4212 26.0566 58.5026 25.4943H58.5495L58.5402 25.0725L59.1888 16.1684L59.1704 15.3248L59.0663 14.8562L59.0653 14.8093C59.4036 14.5594 59.5669 14.1689 59.5553 13.6377C59.5477 13.2941 59.653 13.1066 59.8711 13.0754L60.9615 13.6377H61.9928C63.2428 13.6377 64.1392 13.9033 64.6821 14.4344L64.6862 14.6219C64.3425 14.6219 64.1719 14.6844 64.1747 14.8093L64.6671 15.8872H64.8077C64.8599 15.4186 64.9173 15.1842 64.9798 15.1842C65.1082 15.3405 65.1921 15.606 65.2316 15.9809L64.8433 21.792L64.9391 21.8858L64.9402 21.9326C64.7358 22.5887 64.5585 24.4789 64.4082 27.6031L64.438 28.9622C64.4825 30.9929 64.5985 32.0083 64.786 32.0083H64.9735C65.536 32.0083 66.4395 31.8834 67.684 31.6334C67.8097 31.6647 68.095 31.8521 68.5401 32.1958C68.4767 35.0076 68.32 36.4135 68.07 36.4135L67.5451 35.9917L66.1409 36.0855L60.9357 35.9917C60.6545 35.9917 60.3592 35.3513 60.0499 34.0703C59.859 33.9141 59.7611 33.7267 59.7563 33.508L59.8408 33.0862H59.7002C59.4502 33.0862 58.5376 33.508 56.9623 34.3515C56.8733 34.5702 55.7895 35.0232 53.7108 35.7106C53.2476 35.9605 52.628 36.2104 51.8523 36.4604C51.3774 36.1792 50.6212 35.898 49.5838 35.6168C47.5726 33.6798 46.3321 31.9771 45.8625 30.5087C45.0246 29.3527 44.5643 26.8846 44.4815 23.1042L44.8769 17.6212L44.8738 17.4806C44.8725 17.4181 43.8055 17.215 41.673 16.8713C41.4793 16.5902 41.3685 15.8091 41.3404 14.5282C41.3219 13.6846 41.4533 13.2628 41.7345 13.2628C41.727 12.9192 42.9406 12.6848 45.3754 12.5599ZM44.5908 13.1222L44.4054 13.216L44.4074 13.3097H44.7356L44.7335 13.216L44.5908 13.1222ZM45.7709 13.4972L45.5386 13.5909L45.5396 13.6377C45.5403 13.669 45.7778 13.8096 46.252 14.0595C46.2609 14.4657 46.2966 14.6687 46.3591 14.6687H46.6404C47.3904 14.6687 47.8407 14.5438 47.9915 14.2938L47.9895 14.2001C47.9847 13.9814 47.5121 13.8096 46.5719 13.6846C46.5705 13.6221 46.3817 13.5596 46.0053 13.4972H45.7709ZM42.6122 14.8093H42.0028L42.0059 14.9499L42.1007 14.9968H42.2413L42.6153 14.9499L42.6122 14.8093ZM42.6225 15.278H42.2475L42.2495 15.3717C42.2849 15.5592 42.4588 15.6529 42.7713 15.6529L42.8161 15.5592L42.8141 15.4654L42.6225 15.278ZM60.0353 14.1532H59.9416C59.9484 14.4657 60.2018 14.6219 60.7018 14.6219H60.9831L61.1216 14.5282L61.1206 14.4813C61.1172 14.3251 60.7554 14.2157 60.0353 14.1532ZM43.8535 15.8403C43.8576 16.0278 44.3635 16.2934 45.371 16.637H45.8397C45.9647 16.637 46.0248 16.5277 46.02 16.309C45.6688 15.9653 45.2421 15.7466 44.74 15.6529H44.365C44.0525 15.6529 43.882 15.7154 43.8535 15.8403ZM43.2411 15.6997L43.0087 15.7935L43.0118 15.9341L43.0597 15.9809L43.0608 16.0278C43.3406 15.9653 43.4796 15.8872 43.4775 15.7935L43.4754 15.6997H43.2411ZM47.3774 16.2152L47.3969 17.1057L47.5396 17.1994C47.725 17.1057 47.8146 16.9182 47.8085 16.637L47.7972 16.1215C47.7931 15.9341 47.7435 15.8091 47.6483 15.7466H47.5546C47.4303 15.7779 47.3712 15.9341 47.3774 16.2152ZM42.217 16.0278L42.0336 16.2152L42.1294 16.309H42.5044L42.643 16.2152L42.4514 16.0278H42.217ZM60.49 15.6529L60.3525 15.7935L60.3546 15.8872C60.3573 16.0122 60.468 16.0747 60.6868 16.0747H60.7337C60.9524 16.0747 61.076 16.0122 61.1046 15.8872L61.1025 15.7935C61.0692 15.6997 60.9119 15.6529 60.6307 15.6529H60.49ZM45.3611 18.3241L45.3693 18.699L46.0673 18.4647L46.0457 17.4806L45.9489 17.34C45.7926 17.34 45.5967 17.668 45.3611 18.3241ZM61.2593 20.8079L61.2634 20.9953H61.3102C61.6227 20.9953 61.7711 20.6361 61.7554 19.9175C61.7173 19.6051 61.667 19.4488 61.6045 19.4488C61.5107 19.4488 61.3957 19.9019 61.2593 20.8079ZM63.1661 22.2607H63.0255L62.9358 22.4481C63.0018 22.6043 63.066 22.6824 63.1285 22.6824H63.1753L63.1661 22.2607ZM46.3198 23.5729L46.1782 23.526L45.9948 23.7134L45.9969 23.8072L46.1864 23.9009L46.324 23.7603L46.3198 23.5729ZM60.7006 25.26L60.9401 25.4943C61.095 25.4318 61.1819 25.1194 61.2008 24.557L61.1519 24.4633H61.0581C60.8122 24.6507 60.693 24.9163 60.7006 25.26ZM47.2923 25.1662L47.2995 25.4943C47.3084 25.9004 47.5183 26.2128 47.9294 26.4315H48.07C48.0447 25.2756 47.9382 24.6976 47.7507 24.6976H47.5632C47.3778 24.7913 47.2875 24.9475 47.2923 25.1662ZM60.6181 25.7755L60.4806 25.916L60.4898 26.3378L60.6345 26.5253C60.82 26.4315 60.9575 26.291 61.0472 26.1035L61.0431 25.916L60.8994 25.7755H60.6181ZM45.7232 26.291L45.5856 26.4315L45.5897 26.619C45.6164 27.8375 46.3144 29.7432 47.6838 32.3364C47.9372 32.4926 48.1108 32.5707 48.2045 32.5707L48.1994 32.3364L46.7568 28.5404C46.3191 27.1033 45.9902 26.3534 45.77 26.291H45.7232ZM61.7832 27.6031L61.5998 27.7906L61.6008 27.8375L61.7914 27.978L61.9289 27.8375L61.8769 27.6031H61.7832ZM56.6772 29.8995L56.7262 29.9932H56.773C57.5011 28.9934 57.8635 28.4154 57.86 28.2592L57.858 28.1655H57.7174C57.4742 28.4779 57.1275 29.0559 56.6772 29.8995ZM48.2507 28.2592L48.2517 28.3061C48.3496 28.4935 48.4766 28.5873 48.6329 28.5873L48.6318 28.5404C48.6277 28.353 48.5007 28.2592 48.2507 28.2592ZM61.7058 28.353H61.6121L61.6183 28.6341C61.6292 29.134 61.7214 29.7745 61.8947 30.5556H62.0354C62.1501 30.0869 62.2027 29.6339 62.1931 29.1965L62.1859 28.8685C62.1784 28.5248 62.0183 28.353 61.7058 28.353ZM59.1849 28.8216L58.9922 28.5873C58.8102 28.8372 58.7206 29.0247 58.7233 29.1496L58.9608 29.2902H59.0076L59.1921 29.1496L59.1849 28.8216ZM60.7889 29.2902H60.6951L60.7023 29.6183H60.7961L60.9336 29.4777L60.9305 29.3371L60.7889 29.2902ZM49.6624 30.6493H49.6155L49.6186 30.7899L49.7155 30.9305H49.7623L49.7593 30.7899L49.6624 30.6493ZM63.7728 30.6961L63.3195 31.3991L63.3226 31.5397H63.7913L63.9757 31.3991L63.9706 31.1648C63.9644 30.8836 63.8985 30.7274 63.7728 30.6961ZM59.4309 31.4928L59.4319 31.5397H59.5257L59.8476 31.2585L59.8435 31.0711C59.5623 31.0711 59.4247 31.2116 59.4309 31.4928ZM60.8351 31.3991L60.6976 31.5397L60.7099 32.1021C60.7578 34.289 60.8911 35.3825 61.1099 35.3825H61.2505C61.4686 35.3513 61.5759 35.2576 61.5725 35.1013C61.3129 34.6639 61.1473 33.5236 61.0756 31.6803L60.8351 31.3991ZM49.3559 31.6334H49.2152L49.2193 31.8209C49.2533 31.9458 49.3641 32.0083 49.5516 32.0083L49.5475 31.8209L49.3559 31.6334ZM50.5349 31.9615H50.3943L50.3953 32.0083C50.4029 32.352 50.9607 32.8519 52.0688 33.508C53.3079 33.0081 53.926 32.6957 53.9233 32.5707L53.9222 32.5238C53.1097 32.5238 51.9806 32.3364 50.5349 31.9615ZM52.8229 33.6954L52.825 33.7892H53.3875C54.6001 33.508 55.4033 33.0862 55.7972 32.5238L55.7931 32.3364H55.5588C55.3713 32.3364 54.4593 32.7894 52.8229 33.6954ZM66.6295 32.7113L65.1805 32.8987L65.1846 33.0862L65.4668 33.1331H65.6543C66.3412 33.1018 66.6825 32.9925 66.6784 32.805L66.6764 32.7113H66.6295ZM66.6469 33.508H66.4594L66.4656 33.7892H66.6531L66.7917 33.6954L66.7896 33.6017C66.7882 33.5392 66.7407 33.508 66.6469 33.508ZM62.8665 34.2578L62.7279 34.3515L62.731 34.4921C62.7969 34.6483 62.9861 34.7264 63.2986 34.7264H63.7674L63.906 34.6327L63.9039 34.539C63.9005 34.3828 63.6953 34.289 63.2884 34.2578H62.8665ZM51.9549 34.7264H51.5799L49.7008 34.539H49.607L49.4236 34.7264L49.4247 34.7733C49.4308 35.0545 50.3127 35.3669 52.0702 35.7106C52.6015 35.7106 53.6398 35.32 55.1852 34.539L55.231 34.4921L55.2279 34.3515H54.8998C53.9678 34.6015 52.9861 34.7264 51.9549 34.7264ZM79.8375 19.2145H80.0718C80.2593 19.2145 80.4739 20.4486 80.7155 22.9168H80.7624C80.7699 23.2604 79.1823 23.5416 75.9996 23.7603C72.3278 24.4789 70.0388 24.8382 69.1326 24.8382L69.1305 24.7444C69.1251 24.4945 70.4154 24.1977 73.0016 23.854C74.1517 23.5729 74.7254 23.3698 74.7227 23.2448L74.7216 23.1979H74.2529C70.5702 23.4166 68.7377 23.9321 68.7555 24.7444L68.3846 24.9319C67.3221 24.9319 66.7666 23.8228 66.718 21.6046C66.705 21.011 67.9145 20.5892 70.3465 20.3393C70.3444 20.2455 70.4997 20.1987 70.8122 20.1987L71.7538 20.3861H72.2225L79.8375 19.2145ZM78.9174 20.0112L78.6372 20.0581L78.6403 20.1987H79.0622L79.2945 20.1049L79.2924 20.0112H78.9174ZM76.586 20.5736H77.1485C77.461 20.5736 77.6315 20.5111 77.66 20.3861L77.659 20.3393H77.5652C76.9104 20.4017 76.5839 20.4798 76.586 20.5736ZM74.1119 21.0422L74.114 21.1359C74.4577 21.1359 74.6431 21.0422 74.6703 20.8548H74.4359C74.2172 20.8548 74.1092 20.9172 74.1119 21.0422ZM77.1232 21.5577H78.1544C79.1531 21.4952 79.6969 21.3546 79.7858 21.1359L79.7838 21.0422L79.5473 20.9485C77.9271 21.1672 77.1191 21.3703 77.1232 21.5577ZM71.8701 21.4171L71.8742 21.6046H71.9211C72.5773 21.6046 73.0746 21.4796 73.4129 21.2297L73.4108 21.1359H73.3171C72.9421 21.1359 72.4598 21.2297 71.8701 21.4171ZM67.6982 21.4171L67.5148 21.6046L67.5282 22.2138L67.624 22.3075H67.7178C67.8115 22.3075 67.8696 22.1045 67.8919 21.6983L67.8888 21.5577L67.792 21.4171H67.6982ZM69.0576 21.4171L68.9211 21.6046L68.9231 21.6983H69.1575L69.2482 21.5577L69.2451 21.4171H69.0576ZM76.2336 21.6046H76.1398L76.1419 21.6983H76.3294L76.2336 21.6046ZM75.655 23.0105L75.6561 23.0574H75.7498C78.529 22.9636 79.9169 22.8387 79.9135 22.6824L79.9114 22.5887C79.8469 22.495 79.7511 22.4013 79.624 22.3075H79.5771C78.4834 22.3075 77.176 22.5419 75.655 23.0105ZM67.6332 22.7293L67.5426 22.8699L67.5446 22.9636H67.6384L67.7769 22.8699L67.7739 22.7293H67.6332ZM81.5796 6.56132L83.4026 6.327C85.1281 6.63942 85.9944 6.95185 86.0012 7.26427C86.4116 7.45173 86.7955 7.85788 87.1529 8.48273C87.9791 9.10758 88.9532 10.7791 90.0753 13.4972L91.587 16.1684C92.194 18.1991 92.6381 19.2145 92.9193 19.2145C93.2943 19.2145 93.8974 18.2148 94.7286 16.2152C95.7432 14.0283 97.2159 11.357 99.1468 8.20155C99.7357 7.98285 100.027 7.74853 100.022 7.49859C100.2 7.0612 100.444 6.78001 100.753 6.65504L101.364 6.70191C101.829 6.54569 102.311 6.43635 102.81 6.37386C104.941 6.65504 106.011 6.98309 106.019 7.358L106.02 7.40486L106.354 18.371L106.327 21.4171C106.511 22.6981 106.849 25.9941 107.341 31.3054L107.258 31.8209C107.512 31.9771 107.904 32.0552 108.435 32.0552C109.093 32.1489 109.428 32.4457 109.439 32.9456L109.445 33.2268C109.49 35.2888 109.388 36.3198 109.138 36.3198H109.044C108.539 36.0699 108.02 35.9449 107.489 35.9449H104.723C101.848 35.9449 100.404 35.6481 100.391 35.0545L100.506 33.8829L100.502 33.6954C100.5 33.5705 100.385 33.3518 100.16 33.0393L100.154 32.7582C100.15 32.6019 100.662 32.4301 101.689 32.2426L101.963 31.9146L101.816 31.6334L101.801 30.9305C101.791 30.4618 101.93 29.6964 102.22 28.6341L102.402 28.3998C102.178 28.1499 102.04 26.8689 101.99 24.557L101.927 21.6983L101.943 20.2924C101.81 19.9487 101.738 19.4957 101.726 18.9333L101.71 18.2304C101.695 17.5431 101.768 16.5902 101.929 15.3717C101.921 14.9968 102.066 14.4969 102.365 13.8721L102.405 13.5909C102.163 12.5286 102.037 11.7632 102.027 11.2946H101.886C101.367 11.8257 100.549 12.9973 99.4322 14.8093C98.1738 17.2775 97.0294 19.2458 95.9991 20.7142L94.1826 23.3854C94.0013 23.6666 93.7387 23.8072 93.395 23.8072L92.8273 23.5729C92.5162 23.6353 92.2836 23.7134 92.1294 23.8072C91.7544 23.8072 91.5277 23.4479 91.4495 22.7293C91.09 22.0107 90.5899 21.2922 89.9491 20.5736C89.4361 19.98 88.444 18.1991 86.9727 15.2311L86.4365 14.2938L85.8035 13.216L85.8494 13.1691H86.1306C86.2869 13.1691 86.4163 13.3722 86.519 13.7783L86.5679 13.8721H86.7085L86.7044 13.6846C86.6839 12.7473 86.2279 11.9038 85.3365 11.154H85.1958L85.201 11.3883H84.826L84.8321 11.6695L84.7955 12.1381L84.8058 12.6067C85.4564 19.4801 85.8358 25.3849 85.944 30.3212C85.8849 30.4774 85.7772 30.5556 85.621 30.5556C85.496 30.5556 85.4297 30.3837 85.4222 30.0401L85.3274 29.9932H85.2337L85.1146 30.9773C85.5257 31.196 85.7346 31.4616 85.7414 31.774L85.66 32.3364C85.16 32.3364 84.9076 32.227 84.9028 32.0083H84.7622L84.6267 32.2426L84.6318 32.477C84.6346 32.6019 85.264 32.805 86.5202 33.0862H86.7077C86.9264 33.0862 87.1598 33.0393 87.4077 32.9456C88.6945 33.1955 89.3402 33.4299 89.345 33.6486L89.3491 33.836L89.0689 33.8829C88.8502 33.8829 88.5183 33.711 88.0732 33.3674H87.8389C87.0909 33.4611 86.7187 33.5861 86.7221 33.7423C86.7561 33.8673 86.8668 33.9297 87.0543 33.9297H87.7106C88.6501 34.0235 89.1226 34.1953 89.1281 34.4452L89.2321 34.9139L89.2383 35.1951C89.2472 35.6012 88.9242 35.8355 88.2693 35.898C87.7958 35.6793 87.309 35.57 86.809 35.57L86.81 35.6168C86.8121 35.7106 86.9694 35.7574 87.2819 35.7574C87.6902 35.8512 87.8953 35.9449 87.8974 36.0386L87.3828 36.0855C86.4453 36.0855 84.5665 35.9136 81.7465 35.57L80.5818 35.898C80.0166 35.7731 79.7302 35.5387 79.7227 35.1951L79.7165 34.9139C79.3415 34.9139 79.0829 34.5234 78.9408 33.7423L78.8919 33.6486L78.8868 33.4142C79.2168 32.7894 79.835 32.477 80.7412 32.477C81.5184 32.2895 81.9059 32.1489 81.9039 32.0552L81.9028 32.0083L80.6305 10.3104L80.6801 8.29527L80.4761 7.54545C80.4618 6.88936 80.8296 6.56132 81.5796 6.56132ZM84.9703 9.42C85.3604 10.1073 85.9876 10.9196 86.8519 11.8569L88.6622 15.3248H88.8029C88.7912 14.7937 88.1473 13.216 86.871 10.5916C86.8662 10.3729 86.5452 9.98237 85.9078 9.42L85.8079 9.13882H85.5267C85.1524 9.17006 84.9669 9.26379 84.9703 9.42ZM84.4959 24.1352C84.4375 24.3227 84.4107 24.5258 84.4155 24.7444L84.473 27.3688L84.5743 29.8526L84.6233 29.9463H84.717C85.0295 29.9463 85.2278 29.7276 85.312 29.2902L85.3059 29.0091C85.1809 29.0091 85.0833 28.8372 85.0133 28.4935L85.0417 27.65L85.0407 27.6031C85.0242 26.8533 84.9338 26.291 84.7693 25.916L84.8956 25.26C84.8493 24.5726 84.716 24.1977 84.4959 24.1352ZM96.1369 16.309L96.2327 16.4027C96.4793 16.2465 96.7954 15.6997 97.1812 14.7625C97.4562 14.4813 97.6943 13.9345 97.8952 13.1222L97.8932 13.0285L97.7036 12.9348C97.2661 12.9348 96.7439 14.0595 96.1369 16.309ZM105.137 16.309C105.244 18.3397 105.408 19.402 105.629 19.4957L105.72 19.402L105.687 17.9023C105.661 16.7151 105.595 15.8247 105.488 15.2311H105.348C105.191 15.2311 105.121 15.5904 105.137 16.309ZM84.1821 18.371C84.2809 20.0268 84.4084 20.8548 84.5647 20.8548H84.6584L84.6451 20.2455C84.6238 19.277 84.571 18.2929 84.4866 17.2931H84.4397C84.3147 17.2931 84.2289 17.6524 84.1821 18.371ZM83.3239 11.2946H83.0895L83.0488 11.5757L83.0848 13.216C83.0971 13.7783 83.1814 14.0595 83.3376 14.0595C83.4939 14.0595 83.5631 13.6534 83.5453 12.8411C83.5309 12.185 83.4571 11.6695 83.3239 11.2946ZM105.918 28.3998C105.734 28.5873 105.648 28.9466 105.66 29.4777L105.675 30.1806L105.869 30.4618H106.15C106.244 30.4618 106.303 30.3056 106.327 29.9932C106.179 28.9309 106.043 28.3998 105.918 28.3998ZM82.5652 25.8692L82.6131 25.916C82.8943 25.916 83.0247 25.4474 83.0041 24.5101L82.9713 23.0105L82.9182 22.7293C82.762 22.7293 82.6443 23.7759 82.5652 25.8692ZM81.4893 8.85764L81.4434 8.9045L81.4444 8.95137C81.6009 10.3885 81.7573 11.1071 81.9136 11.1071C82.0338 10.8884 82.0901 10.6072 82.0826 10.2636L82.0744 9.88864C82.06 9.23255 81.8649 8.88888 81.4893 8.85764ZM79.6754 33.0393L79.491 33.1799L79.4961 33.4142C79.5009 33.6329 79.6942 33.8985 80.0761 34.2109H80.1698C80.2636 34.2109 80.3237 34.1016 80.3502 33.8829C80.3066 33.3205 80.2067 33.0393 80.0504 33.0393H79.6754ZM104.354 27.65H104.167C103.96 28.2124 103.862 28.7122 103.871 29.1496C103.973 29.5246 104.087 29.712 104.212 29.712H104.306L104.356 27.7437L104.354 27.65ZM82.6488 8.29527H82.6019L82.6081 8.57646C82.8522 9.73243 83.0836 10.3104 83.3023 10.3104H83.443L83.4389 10.123L83.0933 9.32628C83.083 8.85764 82.9349 8.51397 82.6488 8.29527ZM82.687 29.2902L82.7034 30.0401L82.893 30.1338H82.9867L83.1048 29.1028L83.0507 28.7747H82.957C82.832 28.7747 82.742 28.9466 82.687 29.2902ZM83.5185 35.1482L83.2403 35.2888C83.4618 35.4138 83.7288 35.4762 84.0413 35.4762H84.1819L84.6486 35.3825L84.6445 35.1951L83.5185 35.1482ZM100.933 8.43587L100.981 8.48273C101.075 8.48273 101.289 8.26403 101.623 7.82664L101.617 7.54545H101.476C101.23 7.70167 101.049 7.99847 100.933 8.43587ZM82.7896 21.1359H82.6958L82.7051 21.5577L82.7061 21.6046C82.7164 22.0732 82.784 22.3075 82.909 22.3075L83.0394 21.8389C82.9666 21.3703 82.8833 21.1359 82.7896 21.1359ZM101.437 33.5548L101.3 33.7423L101.304 33.9297L101.4 34.0235L102.053 33.8829L102.05 33.7423C102.016 33.6173 101.905 33.5548 101.718 33.5548H101.437ZM82.0997 15.3248H81.9122L81.9379 16.4964L82.0806 16.5902H82.1275L82.2048 15.8403L82.2017 15.6997L82.0997 15.3248ZM93.9742 20.2924H93.8336C93.6522 20.5736 93.5633 20.7923 93.5667 20.9485L93.5688 21.0422H93.7094C93.8656 21.0422 93.9549 20.8391 93.9773 20.433L93.9742 20.2924ZM85.3518 35.3825H85.0236L85.0257 35.4762L85.5913 35.6168H86.3413L86.3382 35.4762L85.3518 35.3825ZM83.8563 7.77977L83.576 7.82664L83.5791 7.96723C83.5805 8.02971 83.7069 8.0922 83.9582 8.15468C84.1444 8.0922 84.2367 8.02971 84.2354 7.96723L84.2333 7.8735L84.0906 7.77977H83.8563ZM100.392 9.42H100.486H100.533C100.716 9.20131 100.805 9.01385 100.802 8.85764L100.8 8.76391H100.753C100.506 8.92012 100.386 9.13882 100.392 9.42ZM101.748 34.9139L101.422 35.0076L101.425 35.1482L101.566 35.1951H102.082L102.081 35.1482C102.015 34.992 101.904 34.9139 101.748 34.9139ZM106.16 30.9305H105.739L105.741 31.0242L105.981 31.3054H106.075L106.305 31.1179L106.303 31.0242L106.16 30.9305ZM85.4582 8.15468L85.4593 8.20155H85.9749L86.0207 8.15468L86.0187 8.06096L85.9697 7.96723C85.6572 7.96723 85.4867 8.02971 85.4582 8.15468ZM103.57 15.3717L103.573 15.5123L103.669 15.6529C103.794 15.6216 103.854 15.5123 103.85 15.3248L103.844 15.0437H103.75C103.626 15.0749 103.565 15.1842 103.57 15.3717ZM84.3642 22.4013L84.3683 22.5887L84.4285 23.1979H84.5691L84.5619 22.8699C84.5551 22.5575 84.4892 22.4013 84.3642 22.4013ZM85.077 31.3991L84.9384 31.4928L85.0821 31.6334H85.2696L85.3603 31.4928L85.2645 31.3991H85.077ZM102.973 30.9305H102.832L102.792 31.2116L102.794 31.3054H102.934L102.978 31.1648L102.973 30.9305ZM104.859 31.446L104.676 31.6334L104.773 31.774H105.054L105.051 31.6334L104.859 31.446ZM103.598 16.6839H103.505L103.509 16.8713L103.609 17.1525H103.702L103.695 16.8245L103.598 16.6839ZM103.739 14.5282H103.832C103.925 14.4657 103.968 14.3251 103.964 14.1064C103.809 14.1689 103.734 14.3095 103.739 14.5282ZM104.446 25.4005H104.305L104.261 25.5411L104.452 25.6817L104.542 25.5411L104.541 25.4943L104.446 25.4005ZM104.51 30.4618H104.228L104.232 30.6493H104.373L104.511 30.5087L104.51 30.4618ZM80.3717 34.867H80.1842L80.1873 35.0076L80.2841 35.1482L80.3758 35.0545H80.4227L80.3717 34.867ZM81.3729 7.82664H81.2323L81.2354 7.96723L81.3312 8.06096H81.3781L81.3729 7.82664ZM82.6802 31.1179H82.5864L82.5916 31.3522H82.7322L82.7291 31.2116L82.6802 31.1179ZM112.39 2.71849L113.978 2.48417C115.072 2.48417 115.944 3.04653 116.593 4.17126L116.954 5.6709C116.905 6.26451 116.578 7.04557 115.975 8.01409C115.577 8.42024 114.957 8.62332 114.113 8.62332C112.144 8.62332 110.919 8.32652 110.437 7.73291C109.955 7.10806 109.717 6.23327 109.723 5.10854C109.598 5.10854 109.535 5.0773 109.534 5.01481L109.532 4.92108C110.437 3.45269 111.39 2.71849 112.39 2.71849ZM111.478 3.89008L111.479 3.93695C112.539 3.81198 113.067 3.67138 113.063 3.51517L112.827 3.42144C111.924 3.57766 111.474 3.73387 111.478 3.89008ZM112.305 5.24913H112.351L112.634 5.29599H112.727C113.071 5.29599 113.287 5.17102 113.375 4.92108L113.327 4.82736H112.764C112.514 4.82736 112.361 4.96795 112.305 5.24913ZM115.67 4.82736L115.535 5.06168L115.539 5.24913H115.586L115.722 5.06168L115.717 4.82736H115.67ZM114.579 6.37386L114.582 6.51445H114.77C114.989 6.51445 115.158 6.4051 115.278 6.18641L115.275 6.04581H115.181C114.963 6.04581 114.762 6.15516 114.579 6.37386ZM113.566 7.21741L113.429 7.358L113.431 7.45173H114.275L114.413 7.358L114.27 7.21741H113.566ZM107.711 11.6695H107.852C108.106 11.8882 108.421 11.9975 108.796 11.9975L109.399 11.7163C113.649 11.7163 115.777 11.8413 115.783 12.0912L115.837 12.4193L115.854 13.216C116.149 13.8408 116.303 14.4344 116.315 14.9968L116.331 15.7466C116.068 20.8391 115.908 24.9631 115.853 28.1186C115.794 28.3061 115.739 28.6341 115.687 29.1028C115.721 29.2277 115.863 29.2902 116.113 29.2902H116.253C117.941 29.2902 118.789 29.4933 118.798 29.8995L118.753 29.9932L118.759 30.2744C119.151 31.0242 119.364 32.2114 119.4 33.836L119.628 35.7106L119.49 35.8043L117.429 35.898H112.742C109.242 35.898 107.486 35.6168 107.473 35.0545C107.466 34.7108 107.365 34.3671 107.169 34.0235C107.258 33.8048 107.411 33.6329 107.627 33.508H107.768C107.895 33.6329 108.037 33.6954 108.194 33.6954H108.287C109.194 33.6954 110.27 33.6173 111.517 33.4611L111.514 33.3674C108.823 33.1799 107.474 32.9612 107.469 32.7113L107.414 32.3364L107.402 31.8209L107.282 30.6024C107.275 30.29 108.444 30.1338 110.787 30.1338C111.1 30.1338 111.241 29.4308 111.21 28.0249L111.502 15.6997H111.409C110.534 15.6997 110.095 15.6373 110.092 15.5123C110.091 15.481 110.137 15.4342 110.23 15.3717C108.355 15.3717 107.412 15.153 107.403 14.7156C107.277 14.6844 107.212 14.5594 107.207 14.3407L107.429 13.7783C107.426 13.6534 107.329 13.4815 107.136 13.2628C107.381 13.0129 107.542 12.513 107.619 11.7632L107.711 11.6695ZM108.481 12.6067L108.486 12.7942H108.72C109.532 12.7942 109.937 12.7317 109.935 12.6067L109.837 12.4193H109.696C108.884 12.4193 108.479 12.4818 108.481 12.6067ZM114.849 12.2787L114.712 12.4193L114.902 12.5599H114.996L114.993 12.4193L114.849 12.2787ZM109.527 13.2628H108.683L108.686 13.4034C108.689 13.5284 108.909 13.5909 109.347 13.5909H109.862H110.003L111.55 13.5909C112.019 13.5909 112.251 13.5128 112.248 13.3566L112.247 13.3097C112.243 13.1535 111.337 13.1379 109.527 13.2628ZM113.7 13.3097L113.277 13.2628L113.279 13.3566C113.498 13.3566 113.767 13.5128 114.086 13.8252H114.18C114.242 13.8252 114.273 13.7783 114.271 13.6846H114.364C114.489 13.6846 114.571 13.8252 114.608 14.1064H114.702L115.348 13.6377L115.342 13.3566L114.356 13.3097H113.7ZM113.57 15.9341L113.82 16.637L113.51 17.4806C113.641 17.7618 113.754 17.9023 113.847 17.9023H113.894L113.982 17.6212L113.976 17.34C113.951 16.2152 114.111 15.6529 114.454 15.6529L114.591 15.4654L114.587 15.278L114.443 15.1374H114.162C113.756 15.1374 113.558 15.4029 113.57 15.9341ZM112.214 20.3861L112.206 26.4315C112.242 26.6502 112.292 26.7596 112.354 26.7596C112.448 26.7596 112.507 26.619 112.532 26.3378L112.47 25.6349C112.623 25.4786 112.781 24.8538 112.945 23.7603L112.938 23.4791L112.83 22.823C113.014 22.6668 113.106 22.5575 113.104 22.495C112.972 22.1513 112.902 21.8077 112.894 21.464L112.892 21.3703C113.017 21.3703 113.135 19.6207 113.246 16.1215C113.147 15.8716 113.05 15.7466 112.956 15.7466C112.488 15.7466 112.24 17.2931 112.214 20.3861ZM114.421 16.2621L114.234 16.309L114.241 16.5902C114.245 16.7776 114.326 16.9182 114.484 17.0119H114.625L114.761 16.8245L114.756 16.5902C114.69 16.4339 114.579 16.3246 114.421 16.2621ZM114.354 23.9009H114.12C113.895 25.0569 113.789 25.916 113.801 26.4784H113.848C114.004 26.4784 114.193 25.8379 114.415 24.557L114.408 24.2289L114.354 23.9009ZM113.56 28.3061L113.567 28.6341H113.661C113.816 28.5717 113.89 28.3842 113.883 28.0718L113.876 27.7437H113.735C113.673 27.7437 113.614 27.9312 113.56 28.3061ZM113.669 29.0091L113.532 29.1965L113.538 29.4308H113.678L113.863 29.2902L113.86 29.1496L113.716 29.0091H113.669ZM117.444 30.1338L117.304 30.1806C117.495 30.3369 117.841 30.4306 118.341 30.4618L118.338 30.3212C118.336 30.1963 118.131 30.1338 117.725 30.1338H117.444ZM117.674 32.1021L117.115 32.2426C117.186 32.6176 117.471 32.805 117.971 32.805H118.112L118.108 32.6644L118.012 32.5238C118.011 32.4926 118.134 32.3989 118.38 32.2426L118.375 32.0083C118.371 31.7896 118.305 31.6647 118.18 31.6334H117.992C117.899 31.6647 117.793 31.8209 117.674 32.1021ZM108.712 31.6803L108.386 31.774L108.387 31.8209C108.642 32.0708 109.614 32.2114 111.302 32.2426H111.63C111.88 32.2426 112.035 32.1645 112.094 32.0083L112.092 31.9146C110.776 31.7584 109.649 31.6803 108.712 31.6803ZM113.13 32.2426L113.323 32.477C113.604 32.477 113.742 32.3208 113.735 32.0083H113.5C113.313 32.0083 113.19 32.0864 113.13 32.2426ZM117.557 33.1799L117.421 33.3674L117.423 33.4611H117.517L117.653 33.2737L117.651 33.1799H117.557ZM113.954 33.4611L113.346 33.508H112.689L112.694 33.6954L113.351 33.7423L114.708 33.6486L114.705 33.508H114.518L113.954 33.4611ZM118.77 35.0545L118.586 35.1951L118.589 35.3357H118.87L118.914 35.1951L118.864 35.0545H118.77ZM134.296 13.9658C135.515 13.9658 136.565 14.825 137.446 16.5433C137.603 16.5433 137.826 16.7464 138.116 17.1525L138.801 20.6204C138.591 20.9953 137.767 21.1828 136.329 21.1828H135.861C134.7 20.9953 134.114 20.6048 134.101 20.0112C134.091 19.5738 133.718 18.9646 132.982 18.1835C132.885 18.0273 132.212 17.9492 130.962 17.9492C129.774 17.9492 128.343 18.2616 126.67 18.8865C125.51 20.1362 124.75 21.1047 124.39 21.792C124.725 27.1345 124.877 30.4774 124.844 31.8209C124.85 32.1021 125.04 32.2426 125.415 32.2426H126.54C127.041 32.2739 127.293 32.3676 127.297 32.5238L127.298 32.5707L127.498 33.1799L127.462 35.8043L127.189 36.1792L124.991 36.4135H124.804L123.872 36.6947C120.276 36.5697 118.476 36.4291 118.473 36.2729C117.848 36.2729 117.529 35.9917 117.517 35.4294C117.442 34.867 117.398 34.289 117.385 33.6954C117.372 33.1018 117.973 32.7113 119.187 32.5238C119.182 32.2739 119.601 32.1489 120.445 32.1489L120.584 32.1021L120.582 32.0083L120.02 19.1677C120.002 18.3866 119.791 17.9961 119.385 17.9961H119.103C118.728 17.9961 118.107 18.1679 117.24 18.5116L117.144 18.4178L117.142 18.3241C117.14 18.2616 117.264 18.1835 117.512 18.0898L117.51 17.9961C117.197 17.9961 117.022 17.1213 116.983 15.3717C116.921 15.3717 116.868 15.0905 116.824 14.5282C118.053 13.5596 119.355 13.0754 120.73 13.0754H121.902C122.37 13.0754 123.171 13.2316 124.303 13.544L124.306 13.6846C124.034 14.122 123.9 14.4344 123.904 14.6219L123.912 14.9499C126.418 13.8252 129.88 13.4972 134.296 13.9658ZM122.17 21.0422L122.175 21.2765C122.338 21.589 122.424 21.917 122.431 22.2607C122.403 22.3856 122.37 23.0261 122.333 24.1821L122.467 26.0566H122.514C122.608 26.0566 122.701 24.6039 122.794 21.6983C122.856 21.6983 122.881 21.3859 122.867 20.761C122.83 20.4798 122.748 20.3393 122.623 20.3393H122.53C122.283 20.4955 122.163 20.7298 122.17 21.0422ZM119.668 35.1951L119.059 35.2419L119.061 35.3357C119.065 35.4919 119.52 35.57 120.426 35.57H121.832L122.159 35.5231C122.156 35.3669 121.325 35.2576 119.668 35.1951ZM127.356 15.9809L127.358 16.0747C127.639 16.0747 128.004 15.6216 128.453 14.7156L128.448 14.4813H128.401C127.594 14.7312 127.246 15.2311 127.356 15.9809ZM133.436 17.4806H133.67C133.826 17.4493 134.114 17.0744 134.536 16.3558L134.535 16.309C134.534 16.2465 134.47 16.2152 134.345 16.2152C133.82 16.4652 133.561 16.7932 133.57 17.1994C133.539 17.1994 133.494 17.2931 133.436 17.4806ZM122.678 18.5584H122.491L122.278 19.5426C122.281 19.6988 122.378 19.855 122.569 20.0112H122.616C122.71 20.0112 122.783 19.7925 122.836 19.3551L122.678 18.5584ZM129.115 14.9499L129.37 15.8872H129.745L129.723 14.9031L129.579 14.7625H129.439C129.221 14.7937 129.113 14.8562 129.115 14.9499ZM119.323 34.4452L119.231 34.539L119.28 34.6327H121.858L121.855 34.4921L120.261 34.4452H119.323ZM118.051 14.9031C118.307 15.153 118.575 15.278 118.856 15.278L118.901 15.1842L118.894 14.8562L118.701 14.6219C118.265 14.6844 118.048 14.7781 118.051 14.9031ZM123.221 34.7733L123.365 34.9139H124.068L124.251 34.7264C124.25 34.6639 124.17 34.6015 124.013 34.539C123.483 34.6015 123.219 34.6796 123.221 34.7733ZM136.313 16.1684H136.173L136.175 16.2621C136.43 16.5121 136.652 16.637 136.839 16.637H136.98L136.978 16.5433C136.722 16.2934 136.501 16.1684 136.313 16.1684ZM120.187 13.9658H120.046L120.05 14.1532L120.339 14.4813H120.761L120.759 14.3876L120.187 13.9658ZM118.841 16.7307L118.843 16.8245H118.984C119.328 16.8245 119.514 16.762 119.542 16.637L119.445 16.4964H119.352C119.07 16.4964 118.9 16.5745 118.841 16.7307ZM130.793 14.5282L130.231 14.575L130.232 14.6219L130.329 14.7625H130.798C131.017 14.7625 131.14 14.7 131.169 14.575L131.074 14.5282H130.793ZM123.717 29.6183L123.533 29.7589L123.541 30.1338H123.729L123.913 29.9932L123.907 29.712L123.811 29.6183H123.717ZM118.204 34.7264L118.013 34.539L117.923 34.7264L117.927 34.9139L118.024 35.0545H118.211L118.204 34.7264ZM124.379 17.0119L124.192 17.0588L124.195 17.1994L124.386 17.34H124.526L124.664 17.1994L124.661 17.0588L124.379 17.0119ZM131.729 14.4813L131.731 14.575H132.06L132.244 14.4344L132.1 14.2938C131.852 14.3563 131.728 14.4188 131.729 14.4813ZM134.823 14.4813L134.731 14.575L134.732 14.6219L134.829 14.7625H135.017L135.107 14.6219L135.106 14.575L135.011 14.4813H134.823ZM123.422 14.0127L123.19 14.1064L123.194 14.2938H123.428L123.565 14.1064L123.422 14.0127ZM123.3 14.8562L123.116 14.9968L123.118 15.0905L123.214 15.1842L123.444 14.9968L123.441 14.8562H123.3ZM134.776 18.7459L134.778 18.8396H134.872L135.056 18.699L135.053 18.5584H135.006C134.852 18.6522 134.775 18.7146 134.776 18.7459ZM133.092 14.6219L132.907 14.7625L132.908 14.8093H133.143L133.234 14.7156L133.232 14.6219H133.092ZM123.74 30.6493H123.646L123.65 30.8367H123.744L123.74 30.6493ZM153.847 13.9658C155.066 13.9658 156.116 14.825 156.997 16.5433C157.153 16.5433 157.377 16.7464 157.667 17.1525L158.352 20.6204C158.141 20.9953 157.317 21.1828 155.88 21.1828H155.411C154.251 20.9953 153.664 20.6048 153.651 20.0112C153.642 19.5738 153.269 18.9646 152.533 18.1835C152.436 18.0273 151.762 17.9492 150.512 17.9492C149.325 17.9492 147.894 18.2616 146.22 18.8865C145.06 20.1362 144.3 21.1047 143.94 21.792C144.276 27.1345 144.427 30.4774 144.394 31.8209C144.401 32.1021 144.591 32.2426 144.966 32.2426H146.091C146.592 32.2739 146.844 32.3676 146.847 32.5238L146.848 32.5707L147.049 33.1799L147.013 35.8043L146.74 36.1792L144.542 36.4135H144.354L143.423 36.6947C139.827 36.5697 138.027 36.4291 138.023 36.2729C137.398 36.2729 137.079 35.9917 137.067 35.4294C136.992 34.867 136.948 34.289 136.935 33.6954C136.922 33.1018 137.523 32.7113 138.738 32.5238C138.732 32.2739 139.152 32.1489 139.995 32.1489L140.135 32.1021L140.133 32.0083L139.57 19.1677C139.553 18.3866 139.341 17.9961 138.935 17.9961H138.654C138.279 17.9961 137.658 18.1679 136.79 18.5116L136.694 18.4178L136.692 18.3241C136.691 18.2616 136.814 18.1835 137.062 18.0898L137.06 17.9961C136.748 17.9961 136.572 17.1213 136.534 15.3717C136.471 15.3717 136.418 15.0905 136.375 14.5282C137.604 13.5596 138.905 13.0754 140.28 13.0754H141.452C141.921 13.0754 142.721 13.2316 143.853 13.544L143.856 13.6846C143.585 14.122 143.451 14.4344 143.455 14.6219L143.462 14.9499C145.969 13.8252 149.43 13.4972 153.847 13.9658ZM141.721 21.0422L141.726 21.2765C141.889 21.589 141.974 21.917 141.982 22.2607C141.953 22.3856 141.92 23.0261 141.883 24.1821L142.018 26.0566H142.065C142.159 26.0566 142.252 24.6039 142.344 21.6983C142.407 21.6983 142.431 21.3859 142.418 20.761C142.38 20.4798 142.299 20.3393 142.174 20.3393H142.08C141.834 20.4955 141.714 20.7298 141.721 21.0422ZM139.218 35.1951L138.61 35.2419L138.612 35.3357C138.615 35.4919 139.07 35.57 139.976 35.57H141.383L141.71 35.5231C141.706 35.3669 140.876 35.2576 139.218 35.1951ZM146.907 15.9809L146.909 16.0747C147.19 16.0747 147.555 15.6216 148.004 14.7156L147.999 14.4813H147.952C147.145 14.7312 146.796 15.2311 146.907 15.9809ZM152.986 17.4806H153.221C153.376 17.4493 153.665 17.0744 154.087 16.3558L154.086 16.309C154.084 16.2465 154.021 16.2152 153.896 16.2152C153.37 16.4652 153.112 16.7932 153.121 17.1994C153.09 17.1994 153.045 17.2931 152.986 17.4806ZM142.229 18.5584H142.041L141.828 19.5426C141.832 19.6988 141.929 19.855 142.12 20.0112H142.167C142.261 20.0112 142.334 19.7925 142.387 19.3551L142.229 18.5584ZM148.665 14.9499L148.92 15.8872H149.295L149.274 14.9031L149.13 14.7625H148.989C148.771 14.7937 148.663 14.8562 148.665 14.9499ZM138.874 34.4452L138.782 34.539L138.831 34.6327H141.409L141.406 34.4921L139.811 34.4452H138.874ZM137.602 14.9031C137.857 15.153 138.126 15.278 138.407 15.278L138.452 15.1842L138.444 14.8562L138.252 14.6219C137.816 14.6844 137.599 14.7781 137.602 14.9031ZM142.772 34.7733L142.915 34.9139H143.618L143.802 34.7264C143.8 34.6639 143.721 34.6015 143.563 34.539C143.033 34.6015 142.769 34.6796 142.772 34.7733ZM155.864 16.1684H155.723L155.725 16.2621C155.981 16.5121 156.202 16.637 156.39 16.637H156.53L156.528 16.5433C156.273 16.2934 156.051 16.1684 155.864 16.1684ZM139.737 13.9658H139.597L139.601 14.1532L139.889 14.4813H140.311L140.309 14.3876L139.737 13.9658ZM138.392 16.7307L138.394 16.8245H138.534C138.878 16.8245 139.064 16.762 139.093 16.637L138.996 16.4964H138.902C138.621 16.4964 138.451 16.5745 138.392 16.7307ZM150.344 14.5282L149.782 14.575L149.783 14.6219L149.88 14.7625H150.349C150.567 14.7625 150.691 14.7 150.72 14.575L150.625 14.5282H150.344ZM143.268 29.6183L143.084 29.7589L143.092 30.1338H143.279L143.464 29.9932L143.458 29.712L143.362 29.6183H143.268ZM137.755 34.7264L137.563 34.539L137.474 34.7264L137.478 34.9139L137.575 35.0545H137.762L137.755 34.7264ZM143.929 17.0119L143.743 17.0588L143.746 17.1994L143.936 17.34H144.077L144.215 17.1994L144.211 17.0588L143.929 17.0119ZM151.28 14.4813L151.282 14.575H151.61L151.795 14.4344L151.651 14.2938C151.402 14.3563 151.279 14.4188 151.28 14.4813ZM154.374 14.4813L154.282 14.575L154.283 14.6219L154.38 14.7625H154.567L154.658 14.6219L154.657 14.575L154.561 14.4813H154.374ZM142.973 14.0127L142.741 14.1064L142.745 14.2938H142.979L143.116 14.1064L142.973 14.0127ZM142.851 14.8562L142.666 14.9968L142.668 15.0905L142.764 15.1842L142.994 14.9968L142.991 14.8562H142.851ZM154.327 18.7459L154.329 18.8396H154.422L154.607 18.699L154.604 18.5584H154.557C154.403 18.6522 154.326 18.7146 154.327 18.7459ZM152.642 14.6219L152.458 14.7625L152.459 14.8093H152.693L152.785 14.7156L152.783 14.6219H152.642ZM143.291 30.6493H143.197L143.201 30.8367H143.295L143.291 30.6493ZM168.14 13.6377L169.461 14.0127H169.883C171.683 14.8874 173.362 15.9341 174.92 17.1525C176.544 18.5272 177.364 19.5582 177.379 20.2455H177.285C177.025 19.8081 176.771 19.5894 176.521 19.5894H176.474C176.38 19.5894 176.335 19.6519 176.337 19.7769C176.47 20.1206 176.764 20.7142 177.22 21.5577H177.314C177.376 21.5577 177.451 21.4015 177.538 21.0891H177.585C177.679 21.1203 177.799 21.5733 177.943 22.4481L178.385 23.3854L178.305 23.9946L178.482 25.6817C178.281 26.4628 178.1 27.4938 177.941 28.7747C177.829 29.3683 176.424 31.5866 173.727 35.4294C172.503 36.6166 171.297 37.2102 170.11 37.2102C169.019 37.3352 167.786 37.3977 166.411 37.3977H165.52C164.989 37.3977 163.588 36.9446 161.319 36.0386C158.419 33.508 156.955 31.5709 156.926 30.2275C156.501 29.384 156.14 28.6029 155.843 27.8843C155.834 27.4782 156.227 26.1347 157.02 23.854C156.989 22.4169 157.311 21.4171 157.986 20.8548C159.386 17.6993 161.2 15.6529 163.43 14.7156C165.383 13.997 166.953 13.6377 168.14 13.6377ZM160.025 28.353L160.031 28.6341C160.487 29.4777 160.992 30.3837 161.544 31.3522C161.551 31.6647 162.154 32.1021 163.354 32.6644C163.931 33.3205 164.989 33.836 166.529 34.2109L167.374 34.3047C168.743 34.0235 169.768 33.7267 170.449 33.4142L172.105 32.0083C173.814 30.1338 174.623 28.556 174.533 27.2751L174.524 26.8533C174.325 26.3534 174.214 25.5411 174.189 24.4164C174.17 23.5416 174.217 22.8543 174.331 22.3544C174.326 22.1357 173.705 21.589 172.467 20.7142C171.565 19.4645 170.642 18.699 169.698 18.4178H169.136C165.483 18.5741 163.661 18.8709 163.671 19.3083C162.876 20.1206 162.331 20.9172 162.036 21.6983C161.059 22.7606 160.574 23.4635 160.582 23.8072C160.329 25.0881 160.143 26.6034 160.025 28.353ZM161.23 17.0119L161.094 17.2462L161.098 17.4337C161.286 17.4337 162.225 16.7776 163.915 15.4654L164.287 15.3248L164.569 15.3717C166.658 15.153 167.7 14.9499 167.696 14.7625L167.695 14.7156L166.942 14.575C164.817 14.575 162.913 15.3873 161.23 17.0119ZM164.908 17.9961L164.909 18.0429L165.005 18.1835H165.662L168.973 17.4337L168.971 17.34L168.077 17.1525C165.957 17.4025 164.901 17.6836 164.908 17.9961ZM157.804 29.6651L157.62 29.8057L157.627 30.1338C157.713 31.196 158.022 31.7896 158.556 31.9146L158.602 31.8677L158.601 31.8209C158.351 30.3837 158.085 29.6651 157.804 29.6651ZM164.779 16.4027L164.784 16.637C167.215 16.3558 168.43 16.1684 168.428 16.0747L168.05 15.9341H168.003C166.503 15.9341 165.428 16.0903 164.779 16.4027ZM168.724 14.6219C168.89 15.0593 169.239 15.278 169.77 15.278L170.24 15.3248L170.332 15.278L170.327 15.0437C170.32 14.7 169.987 14.4969 169.33 14.4344C168.924 14.4657 168.722 14.5282 168.724 14.6219ZM160.626 34.3984H160.298L160.302 34.5858C160.718 34.992 161.456 35.1951 162.519 35.1951H163.035C162.873 34.9764 162.071 34.7108 160.626 34.3984ZM168.399 36.1323L168.401 36.2261C168.403 36.3198 168.639 36.3979 169.109 36.4604C169.64 36.4604 169.904 36.3823 169.901 36.2261L169.899 36.1323C169.865 36.0074 169.753 35.8824 169.562 35.7574H169.141C168.797 35.7574 168.55 35.8824 168.399 36.1323ZM177.11 27.2282C177.162 28.1655 177.251 28.6654 177.377 28.7279H177.471C177.463 28.3842 177.596 28.0093 177.868 27.6031L177.865 27.4625L177.334 26.7596H177.24C177.178 26.7596 177.134 26.9158 177.11 27.2282ZM173.84 19.1677H173.652C173.848 19.5738 174.309 19.9175 175.034 20.1987H175.222L175.359 20.0581L175.358 20.0112C174.814 19.4488 174.308 19.1677 173.84 19.1677ZM172.776 17.7149L172.779 17.8086C172.88 18.1835 173.327 18.5741 174.117 18.9802H174.257L174.348 18.8396L174.347 18.7928C174.186 18.5741 173.662 18.2148 172.776 17.7149ZM169.649 16.1684L169.556 16.2152C170.16 16.6839 170.634 16.9182 170.978 16.9182L171.023 16.8245L171.022 16.7776C170.513 16.3715 170.055 16.1684 169.649 16.1684ZM163.827 35.0076L163.83 35.1482C163.834 35.3357 164.274 35.4294 165.149 35.4294L165.195 35.3825L165.193 35.2888C164.782 35.1013 164.327 35.0076 163.827 35.0076ZM172.028 15.6529L171.891 15.7935C172.244 16.2309 172.593 16.4496 172.936 16.4496C172.929 16.1059 172.657 15.8403 172.122 15.6529H172.028ZM160.696 20.4798L160.704 20.8079H160.844C161.242 20.433 161.439 20.1362 161.434 19.9175L161.433 19.8706H161.199C161.014 19.9956 160.847 20.1987 160.696 20.4798ZM171.243 18.3241C171.437 18.6365 171.659 18.7928 171.909 18.7928L171.954 18.699L171.952 18.6053C171.946 18.3241 171.818 18.1835 171.568 18.1835C171.35 18.2148 171.242 18.2616 171.243 18.3241ZM176.06 30.6493L176.061 30.6961C176.311 30.6961 176.524 30.4462 176.701 29.9463L176.699 29.8526H176.558C176.371 29.8526 176.205 30.1182 176.06 30.6493ZM161.627 18.0429C161.909 18.0429 162.17 17.8555 162.412 17.4806L162.409 17.34C161.881 17.4962 161.621 17.7305 161.627 18.0429ZM176.791 29.8057H177.026L177.216 29.9463C177.237 29.4464 177.154 29.2277 176.968 29.2902H176.874L176.82 28.9622L176.791 29.8057ZM170.937 36.4604H170.984C171.543 36.2729 171.82 36.1167 171.818 35.9917L171.722 35.898C171.288 36.0542 171.026 36.2417 170.937 36.4604ZM159.606 32.7582L159.421 32.8519L159.423 32.9456L159.806 33.3205H159.993C159.989 33.1018 159.86 32.9144 159.606 32.7582ZM162.857 35.6637L162.858 35.7106H163.468L163.559 35.6168L163.463 35.4762H163.369C163.056 35.4762 162.886 35.5387 162.857 35.6637ZM177.787 23.9009L177.649 24.0415L177.654 24.2289L177.798 24.4164L177.982 24.2289L177.978 24.0415L177.834 23.9009H177.787ZM157.926 22.4013C158.082 22.4013 158.221 22.2919 158.341 22.0732L158.339 21.9795C158.057 21.9795 157.92 22.1201 157.926 22.4013ZM156.584 27.4625L156.493 27.6031C156.531 27.8843 156.581 28.0249 156.643 28.0249L156.736 27.978L156.731 27.7437L156.631 27.4625H156.584ZM168.862 16.637L168.863 16.6839L169.324 16.309L169.229 16.2621C168.921 16.4496 168.798 16.5745 168.862 16.637ZM158.829 20.8079H158.876C159 20.7767 159.06 20.6517 159.055 20.433H158.961C158.869 20.4955 158.825 20.6204 158.829 20.8079ZM159.233 26.4315L159.05 26.619L159.052 26.7127H159.192L159.283 26.5721L159.28 26.4315H159.233ZM161.844 19.3551H161.656L161.66 19.5426H161.754L161.846 19.4488L161.844 19.3551ZM193.182 13.9658C194.401 13.9658 195.451 14.825 196.333 16.5433C196.489 16.5433 196.712 16.7464 197.002 17.1525L197.688 20.6204C197.477 20.9953 196.653 21.1828 195.216 21.1828H194.747C193.586 20.9953 193 20.6048 192.987 20.0112C192.977 19.5738 192.604 18.9646 191.869 18.1835C191.771 18.0273 191.098 17.9492 189.848 17.9492C188.66 17.9492 187.23 18.2616 185.556 18.8865C184.396 20.1362 183.636 21.1047 183.276 21.792C183.612 27.1345 183.763 30.4774 183.73 31.8209C183.736 32.1021 183.927 32.2426 184.302 32.2426H185.427C185.927 32.2739 186.179 32.3676 186.183 32.5238L186.184 32.5707L186.385 33.1799L186.349 35.8043L186.075 36.1792L183.877 36.4135H183.69L182.759 36.6947C179.162 36.5697 177.362 36.4291 177.359 36.2729C176.734 36.2729 176.415 35.9917 176.403 35.4294C176.328 34.867 176.284 34.289 176.271 33.6954C176.258 33.1018 176.859 32.7113 178.074 32.5238C178.068 32.2739 178.487 32.1489 179.331 32.1489L179.471 32.1021L179.468 32.0083L178.906 19.1677C178.889 18.3866 178.677 17.9961 178.271 17.9961H177.99C177.615 17.9961 176.993 18.1679 176.126 18.5116L176.03 18.4178L176.028 18.3241C176.027 18.2616 176.15 18.1835 176.398 18.0898L176.396 17.9961C176.083 17.9961 175.908 17.1213 175.87 15.3717C175.807 15.3717 175.754 15.0905 175.71 14.5282C176.939 13.5596 178.241 13.0754 179.616 13.0754H180.788C181.257 13.0754 182.057 13.2316 183.189 13.544L183.192 13.6846C182.92 14.122 182.786 14.4344 182.791 14.6219L182.798 14.9499C185.304 13.8252 188.766 13.4972 193.182 13.9658ZM181.056 21.0422L181.061 21.2765C181.225 21.589 181.31 21.917 181.317 22.2607C181.289 22.3856 181.256 23.0261 181.219 24.1821L181.354 26.0566H181.401C181.494 26.0566 181.587 24.6039 181.68 21.6983C181.743 21.6983 181.767 21.3859 181.753 20.761C181.716 20.4798 181.635 20.3393 181.51 20.3393H181.416C181.169 20.4955 181.049 20.7298 181.056 21.0422ZM178.554 35.1951L177.946 35.2419L177.948 35.3357C177.951 35.4919 178.406 35.57 179.312 35.57H180.718L181.045 35.5231C181.042 35.3669 180.212 35.2576 178.554 35.1951ZM186.242 15.9809L186.244 16.0747C186.526 16.0747 186.891 15.6216 187.34 14.7156L187.334 14.4813H187.287C186.48 14.7312 186.132 15.2311 186.242 15.9809ZM192.322 17.4806H192.556C192.712 17.4493 193.001 17.0744 193.422 16.3558L193.421 16.309C193.42 16.2465 193.357 16.2152 193.232 16.2152C192.706 16.4652 192.448 16.7932 192.456 17.1994C192.425 17.1994 192.38 17.2931 192.322 17.4806ZM181.564 18.5584H181.377L181.164 19.5426C181.167 19.6988 181.265 19.855 181.456 20.0112H181.502C181.596 20.0112 181.67 19.7925 181.722 19.3551L181.564 18.5584ZM188.001 14.9499L188.256 15.8872H188.631L188.609 14.9031L188.466 14.7625H188.325C188.107 14.7937 187.999 14.8562 188.001 14.9499ZM178.209 34.4452L178.118 34.539L178.167 34.6327H180.745L180.742 34.4921L179.147 34.4452H178.209ZM176.937 14.9031C177.193 15.153 177.461 15.278 177.742 15.278L177.787 15.1842L177.78 14.8562L177.587 14.6219C177.151 14.6844 176.935 14.7781 176.937 14.9031ZM182.107 34.7733L182.251 34.9139H182.954L183.137 34.7264C183.136 34.6639 183.057 34.6015 182.899 34.539C182.369 34.6015 182.105 34.6796 182.107 34.7733ZM195.199 16.1684H195.059L195.061 16.2621C195.316 16.5121 195.538 16.637 195.725 16.637H195.866L195.864 16.5433C195.608 16.2934 195.387 16.1684 195.199 16.1684ZM179.073 13.9658H178.932L178.937 14.1532L179.225 14.4813H179.647L179.645 14.3876L179.073 13.9658ZM177.727 16.7307L177.729 16.8245H177.87C178.214 16.8245 178.4 16.762 178.428 16.637L178.332 16.4964H178.238C177.957 16.4964 177.786 16.5745 177.727 16.7307ZM189.679 14.5282L189.118 14.575L189.119 14.6219L189.216 14.7625H189.684C189.903 14.7625 190.027 14.7 190.055 14.575L189.96 14.5282H189.679ZM182.604 29.6183L182.419 29.7589L182.427 30.1338H182.615L182.799 29.9932L182.793 29.712L182.697 29.6183H182.604ZM177.091 34.7264L176.899 34.539L176.809 34.7264L176.813 34.9139L176.91 35.0545H177.098L177.091 34.7264ZM183.265 17.0119L183.078 17.0588L183.081 17.1994L183.272 17.34H183.413L183.55 17.1994L183.547 17.0588L183.265 17.0119ZM190.616 14.4813L190.618 14.575H190.946L191.13 14.4344L190.987 14.2938C190.738 14.3563 190.614 14.4188 190.616 14.4813ZM193.709 14.4813L193.618 14.575L193.619 14.6219L193.716 14.7625H193.903L193.994 14.6219L193.993 14.575L193.897 14.4813H193.709ZM182.308 14.0127L182.076 14.1064L182.08 14.2938H182.315L182.451 14.1064L182.308 14.0127ZM182.186 14.8562L182.002 14.9968L182.004 15.0905L182.1 15.1842L182.33 14.9968L182.327 14.8562H182.186ZM193.662 18.7459L193.664 18.8396H193.758L193.942 18.699L193.939 18.5584H193.892C193.738 18.6522 193.662 18.7146 193.662 18.7459ZM191.978 14.6219L191.794 14.7625L191.795 14.8093H192.029L192.121 14.7156L192.119 14.6219H191.978ZM182.626 30.6493H182.532L182.537 30.8367H182.63L182.626 30.6493Z" fill="#74CD79"/>
</svg>
