<svg width="11" height="36" viewBox="0 0 11 36" fill="none" xmlns="http://www.w3.org/2000/svg">
<path d="M3.5 5.50011C1.5 10.0001 11 4.49998 10.5 10.5C10 11.5 0 10.5 0 6.50011C0 2.50011 2.5 0.000107899 5 0.500101C5 7.00011 5.5 1.00011 3.5 5.50011Z" fill="#D9D9D9"/>
<path d="M3.5 18.0634C1.5 22.5634 11 17.0633 10.5 23.0633C10 24.0633 0 23.0633 0 19.0634C0 15.0634 2.5 12.5634 5 13.0634C5 19.5634 5.5 13.5634 3.5 18.0634Z" fill="#D9D9D9"/>
<path d="M3.5 30.0634C1.5 34.5634 11 29.0633 10.5 35.0633C10 36.0633 0 35.0633 0 31.0634C0 27.0634 2.5 24.5634 5 25.0634C5 31.5634 5.5 25.5634 3.5 30.0634Z" fill="#D9D9D9"/>
</svg>
