<svg width="264" height="51" viewBox="0 0 264 51" fill="none" xmlns="http://www.w3.org/2000/svg">
<path d="M1.60897 4.99712L13.791 4.74718C23.2521 4.87215 27.9858 5.08043 27.9922 5.37203C27.9949 5.497 27.8713 5.55948 27.6213 5.55948L27.6254 5.74694H27.7504C28.1579 5.33037 29.1928 5.01795 30.8549 4.80966L31.166 4.74718C31.2983 5.08043 31.3667 5.3512 31.3713 5.55948C31.4233 7.93391 31.594 10.0167 31.8832 11.808L30.7491 14.2449C30.2546 14.4948 29.7782 14.6198 29.3198 14.6198C27.9865 14.6198 27.3112 14.2241 27.2938 13.4326L27.2911 13.3076C27.368 13.016 27.5691 12.6828 27.8942 12.3079C27.4748 12.1829 27.2587 11.8288 27.2459 11.2456C27.2295 10.4958 26.9088 10.1209 26.2838 10.1209C26.2764 9.78764 26.2311 9.62101 26.1478 9.62101H24.4603L24.4617 9.68349C24.4644 9.80846 24.7171 9.93343 25.2199 10.0584L25.2254 10.3083L24.7281 10.4333L17.0365 10.2459H13.0365C10.3282 10.2459 8.97764 10.4125 8.98495 10.7457C9.19328 10.7457 9.50825 14.6615 9.92987 22.4929C10.2279 22.7845 10.4811 22.9303 10.6895 22.9303H11.127L14.2478 22.7429L19.324 23.3677C19.7407 23.3677 19.9358 22.7637 19.9093 21.5556C19.8975 21.0141 20.4105 20.66 21.4486 20.4934L21.8792 20.181C22.4209 20.181 22.7387 22.3263 22.8327 26.6169L22.8889 29.1788C22.8971 29.5537 22.798 29.7828 22.5914 29.8661C22.086 29.6162 21.2684 29.3871 20.1389 29.1788C20.0139 29.1788 19.7914 28.5331 19.4714 27.2418C19.4623 26.8252 17.8536 26.6169 14.6452 26.6169C11.6869 26.6169 10.2105 26.7419 10.216 26.9918L10.1754 27.9916L10.69 34.3651C10.6596 36.7812 10.5265 39.2597 10.2905 41.8008L10.5432 41.9258C12.3321 41.8008 14.6609 41.5925 17.5295 41.3009H17.592C19.7587 41.3009 22.7429 41.53 26.5446 41.9882H26.6696C27.0029 41.9882 27.1859 41.78 27.2184 41.3634H27.5934L28.2307 41.9258L28.285 41.5508C28.2686 40.801 28.1145 40.4261 27.8229 40.4261L27.3908 40.6761C26.9678 40.3845 26.6452 39.9262 26.4232 39.3014C26.4132 38.8432 27.1772 38.5307 28.7152 38.3641C28.8402 38.3641 29.3665 38.614 30.2941 39.1139C30.7524 39.1139 30.9912 39.5513 31.0104 40.4261C31.0743 43.3421 31.2309 45.7373 31.4803 47.6119L31.3065 48.2367H30.994C30.6969 47.9868 29.6094 47.7993 27.7317 47.6744C27.728 47.5077 20.3272 47.2786 5.52913 46.987C4.61246 46.987 4.14591 46.6121 4.12948 45.8623C3.95916 45.6957 3.8594 44.9459 3.83019 43.6128L4.05006 42.2382L4.03637 41.6133L4.21839 41.3634H4.40589C4.78911 41.7383 5.10572 41.9258 5.35572 41.9258H5.54322C6.41365 41.7175 6.84431 41.405 6.83518 40.9885L6.15072 26.8669C6.14433 26.5753 5.9033 26.0337 5.42762 25.2423C5.55262 25.2423 5.63211 21.264 5.66609 13.3076C5.78561 13.0577 5.83898 12.6411 5.8262 12.0579L5.82072 11.808C5.79608 10.6833 5.11709 10.1209 3.78375 10.1209L2.21167 9.68349L1.40191 9.80846C0.735239 9.80846 0.381367 8.87119 0.340288 6.99664L0.276419 6.93415C0.289787 5.6428 0.713138 4.99712 1.54647 4.99712H1.60897ZM1.93653 5.68445H1.68653L1.6879 5.74694L2.33344 6.68421C2.61598 6.26765 2.86142 6.05936 3.06975 6.05936L3.50862 6.12185L3.69475 6.05936C3.27261 5.80942 2.68653 5.68445 1.93653 5.68445ZM5.25725 6.05936C4.9665 6.10102 4.82249 6.18433 4.82523 6.3093C4.82796 6.43427 4.89183 6.49676 5.01683 6.49676L5.57523 6.3093L5.56975 6.05936H5.25725ZM10.8836 6.12185H10.6961L10.6989 6.24682H10.8864L10.8836 6.12185ZM6.1391 6.37179L5.95844 6.68421L5.95981 6.7467C6.04862 6.99664 6.28053 7.12161 6.65553 7.12161H7.40553L7.40005 6.87167C6.85108 6.53842 6.4516 6.37179 6.2016 6.37179H6.1391ZM9.21392 6.93415H8.90142L8.90279 6.99664C8.99069 7.20492 9.18047 7.30906 9.47213 7.30906H9.78463L9.78327 7.24658C9.69537 7.0383 9.50559 6.93415 9.21392 6.93415ZM25.5305 7.12161L23.2819 7.18409L23.2846 7.30906L26.8567 7.74646C26.9808 7.7048 27.0822 7.57983 27.161 7.37155L27.1569 7.18409L25.5305 7.12161ZM11.7208 7.24658C11.7244 7.41321 12.1012 7.49652 12.8512 7.49652C12.8476 7.32989 12.4708 7.24658 11.7208 7.24658ZM8.82024 8.93367C8.91087 9.26693 9.12286 9.43355 9.45619 9.43355H9.51869C11.1428 9.3919 11.9516 9.22527 11.9452 8.93367C11.9398 8.68373 11.4162 8.55876 10.3745 8.55876H10.187C9.27035 8.55876 8.81476 8.68373 8.82024 8.93367ZM14.0064 8.87119L13.8827 8.93367C13.9281 9.1003 14.0757 9.18361 14.3257 9.18361H14.3882C14.6799 9.18361 14.8447 9.1003 14.8827 8.93367L14.6939 8.87119H14.0064ZM5.32297 9.05864H3.88547L3.88821 9.18361H5.32571L5.32297 9.05864ZM28.125 11.4331L28.1264 11.4956L28.318 11.683C28.443 11.683 28.5421 11.4539 28.6154 10.9957L28.5433 10.5583H28.3558C28.1892 10.5583 28.1122 10.8499 28.125 11.4331ZM29.4704 12.9327L29.5967 12.9952L29.7883 13.1827L29.7897 13.2451C30.0397 13.2451 30.1597 13.016 30.1497 12.5578L30.1469 12.4328H29.8969C29.7737 12.5161 29.6316 12.6828 29.4704 12.9327ZM7.90239 12.6828L7.78287 12.9327L7.79382 13.4326C7.88446 13.7658 8.05478 13.9325 8.30478 13.9325L8.42293 13.62L8.42156 13.5576C8.41152 13.0993 8.23846 12.8077 7.90239 12.6828ZM8.34586 15.807L7.9777 16.1194L7.98729 16.5568L8.24277 16.8068H8.43027L8.55116 16.6193L8.34586 15.807ZM10.5225 23.8676L10.3405 24.1175L10.3418 24.18H10.8418L10.8391 24.055L10.585 23.8676H10.5225ZM14.9112 24.4924H14.7237L14.7278 24.6799L14.918 24.8049H15.043L15.0403 24.6799L14.9112 24.4924ZM15.7903 24.6799H15.5403L15.543 24.8049H15.793L15.7903 24.6799ZM16.6028 24.6799H16.2903L16.5458 24.9298H16.7958L16.793 24.8049L16.6028 24.6799ZM7.69317 28.8039H7.44317L7.32638 29.1788L7.33871 29.7412H7.52621L7.71234 29.6787L7.69317 28.8039ZM9.17497 33.6777H8.98747L8.99158 33.8652H9.17908L9.17497 33.6777ZM9.20832 38.0517H9.02082L8.96654 38.4266L8.98434 39.2389L9.04821 39.3014L9.04958 39.3639C9.34124 39.3639 9.48206 39.1348 9.47201 38.6765C9.4638 38.3016 9.3759 38.0933 9.20832 38.0517ZM29.4383 39.9887L29.6299 40.1762C29.8364 40.0929 29.9387 40.0095 29.9369 39.9262L29.9342 39.8013L29.8051 39.6138C29.5569 39.6971 29.4346 39.8221 29.4383 39.9887ZM9.12899 42.988H8.94149L8.9456 43.1755H9.1331L9.12899 42.988ZM9.39132 43.5504L9.20793 43.7378L9.20929 43.8003C9.25461 43.9669 9.48561 44.0502 9.90227 44.0502H10.2148L10.587 43.9253L10.5843 43.8003C10.539 43.6337 10.3913 43.5504 10.1413 43.5504H9.39132ZM14.1468 43.8003H13.5218L13.5245 43.9253L13.6536 44.1127H13.9036L14.2773 44.0502L14.2745 43.9253L14.1468 43.8003ZM27.5218 43.8003L27.2786 44.1127L27.28 44.1752C27.3253 44.3418 27.473 44.4252 27.723 44.4252C28.1387 44.3835 28.3448 44.2794 28.3411 44.1127L28.3398 44.0502L28.2718 43.8003H27.5218ZM16.7148 44.0502H15.2773L15.28 44.1752L16.7216 44.3627H20.4091C20.4046 44.1544 19.1731 44.0502 16.7148 44.0502ZM7.47025 44.3002L6.78412 44.3627L6.78686 44.4876C6.87475 44.6959 7.0437 44.8001 7.2937 44.8001H7.9187L8.10073 44.5501L8.09936 44.4876C8.09662 44.3627 7.94942 44.3002 7.65775 44.3002H7.47025ZM23.4091 44.3627H22.7841L22.7855 44.4252C22.7901 44.6334 23.7928 44.7584 25.7937 44.8001L25.791 44.6751C25.0364 44.4668 24.2425 44.3627 23.4091 44.3627ZM5.4949 45.4249H5.2449L5.25585 45.9248L5.44609 46.0498H5.50859L5.4949 45.4249ZM29.6838 45.4874H29.0588L29.0642 45.7373L29.7559 45.9248H29.9434L30.0642 45.7373L30.0615 45.6124L29.6838 45.4874ZM24.01 46.1122L24.6391 46.2997H25.2016C25.4932 46.2997 25.6581 46.2164 25.6961 46.0498H25.5711L24.8809 45.9248C24.2993 46.0081 24.009 46.0706 24.01 46.1122ZM19.1961 46.0498H18.8211L18.8225 46.1122L18.9516 46.2997H19.8891L19.885 46.1122L19.1961 46.0498ZM14.26 46.1122L14.0154 46.3622L14.0195 46.5496H14.332L14.4529 46.3622L14.4516 46.2997L14.3225 46.1122H14.26ZM51.8986 0.87311L54.6472 0.810625C56.3629 1.14388 57.2225 1.39382 57.2262 1.56044C57.3095 1.56044 57.4061 2.16447 57.5159 3.37251C57.9861 3.91405 58.223 4.26813 58.2267 4.43475C58.0621 6.43427 57.9641 10.5166 57.9325 16.6818C57.8492 16.6818 57.8121 16.8901 57.8212 17.3067C57.4925 17.5149 57.3308 17.7441 57.3363 17.994L57.3582 18.9938C57.3765 19.8269 57.1891 20.785 56.7962 21.8681L56.7529 22.7429C56.7565 22.9095 56.9884 23.0345 57.4486 23.1178L57.4582 23.5552C56.9491 28.8456 56.7124 32.3031 56.748 33.9277C56.7899 35.8439 56.6859 36.802 56.4359 36.802L56.4387 36.927C56.6887 36.927 56.8404 37.1977 56.894 37.7393L56.8411 38.1767L56.8465 38.4266C56.8639 39.2181 56.6559 41.1343 56.2225 44.1752L56.254 45.6124C58.3474 46.0706 59.4023 46.6746 59.4187 47.4244L59.1131 47.7369L59.1254 48.2992L59.4488 48.7991C59.1347 49.6739 57.9568 50.1113 55.9151 50.1113H55.5401L55.2166 49.6114H54.5291L52.8499 49.9863L50.4735 49.9238C50.3068 49.9238 50.096 48.8616 49.8412 46.7371L49.9223 44.7376C49.3807 44.7376 48.5365 45.1958 47.39 46.1122C43.9736 48.0285 40.9548 49.0699 38.3334 49.2365C35.9031 48.6116 33.7099 47.4036 31.754 45.6124C31.1153 44.9875 30.448 44.0086 29.7522 42.6756C28.9793 41.6342 28.5906 41.0093 28.5861 40.801L28.5806 40.5511H28.7681C29.0643 40.7594 29.6215 41.4675 30.4397 42.6756L30.7535 42.7381L30.8147 42.6756L30.7969 41.8633C30.7786 41.0301 30.3192 40.0304 29.4186 38.864H29.1061C28.8561 38.864 28.7185 39.2389 28.6933 39.9887H28.5058L28.3739 39.6763C28.4217 38.0517 28.4609 36.9894 28.4916 36.4896H28.8666L28.9414 37.0519H29.0664C29.2729 36.9686 29.3725 36.7603 29.3652 36.4271L29.3392 35.2399L29.2101 35.0524C29.0851 35.0524 29.0263 35.219 29.0336 35.5523L28.6668 35.9272C28.5834 35.9272 28.5177 35.7814 28.4697 35.4898C28.4012 32.3655 29.349 29.033 31.3131 25.4922C32.2349 23.8259 33.164 22.4929 34.1005 21.4932C35.4073 20.2851 37.4983 19.6811 40.3733 19.6811H40.9358C45.3524 19.6811 48.9817 20.8267 51.8236 23.1178L52.2665 23.3677H52.454C52.7889 21.5348 53.0621 16.8901 53.2737 9.43355C53.4747 9.1003 53.6377 8.93367 53.7627 8.93367C52.4102 8.05888 51.484 7.62149 50.984 7.62149C50.609 7.62149 50.3483 6.18433 50.202 3.31002C50.2835 3.22671 50.6155 3.16423 51.1979 3.12257L51.1924 2.87263C51.1471 2.706 50.9786 2.62269 50.6869 2.62269C50.4759 2.49772 50.3685 2.35192 50.3649 2.18529C50.3557 1.76873 50.8303 1.56044 51.7887 1.56044L51.7832 1.3105L51.5277 1.06056L51.525 0.935595L51.8986 0.87311ZM52.02 3.55996L51.9616 3.74742L51.963 3.8099H52.713L52.7116 3.74742L52.52 3.55996H52.02ZM55.5337 4.18481L55.4128 4.37227L55.4142 4.43475H56.3517L56.3475 4.2473L55.9087 4.18481H55.5337ZM53.6222 5.37203L53.7513 5.55948C54.7504 5.51783 55.2476 5.39286 55.2431 5.18457L54.989 4.99712H54.239C53.9473 4.99712 53.7417 5.12209 53.6222 5.37203ZM51.9917 5.12209L51.8708 5.30954L51.8736 5.43451L52.3138 5.55948C52.5638 5.55948 52.7078 5.47617 52.7458 5.30954L52.5542 5.12209H51.9917ZM38.4714 21.3057L38.2893 21.5556L38.2962 21.8681L38.4864 21.993H38.7989L39.1059 21.7431L39.1018 21.5556L38.8464 21.3057H38.4714ZM42.1739 21.993L42.3044 22.243H45.0544L45.0489 21.993C44.7934 21.7431 44.1027 21.5973 42.9768 21.5556H42.3518C42.2277 21.5973 42.1684 21.7431 42.1739 21.993ZM57.1087 21.8681L57.1018 21.5556H57.4143L57.4212 21.8681H57.1087ZM34.2638 23.2427L34.2693 23.4927L34.3957 23.5552H34.6457C36.0958 23.1803 36.8154 22.7429 36.8044 22.243C36.7591 22.0764 36.5489 21.993 36.1739 21.993H35.8614C35.2364 21.993 34.7039 22.4096 34.2638 23.2427ZM47.6876 22.6179L46.814 22.6804H46.689L46.6931 22.8678C47.7022 23.2844 48.3526 23.4927 48.6443 23.4927H48.7068C48.6977 23.0761 48.3579 22.7845 47.6876 22.6179ZM53.757 22.9303H53.507C53.5161 23.3469 53.604 23.5552 53.7707 23.5552L53.8318 23.4927L53.8277 23.3052L53.757 22.9303ZM40.5941 24.055L40.4718 24.18L40.5982 24.2425H40.8482L41.033 24.1175L41.0316 24.055H40.5941ZM31.6275 28.429L31.6316 28.6164H31.8191C32.0672 28.5331 32.3276 28.0541 32.6001 27.1793C33.8117 25.4297 34.6259 24.5549 35.0426 24.5549L35.283 24.1175H34.908C34.7413 24.1175 34.0629 24.5341 32.8729 25.3672C32.1068 26.5336 31.6916 27.5542 31.6275 28.429ZM38.5412 24.4924L38.4203 24.6799H39.0453L39.2301 24.5549L39.2287 24.4924H38.5412ZM41.798 24.8049L41.9244 24.8673H42.0494L43.4203 24.6799L43.4176 24.5549L42.9787 24.4924C42.1879 24.5341 41.7944 24.6382 41.798 24.8049ZM45.1037 24.4924L44.9828 24.6799L45.1744 24.8673H45.5494L45.6703 24.6799C45.5842 24.5549 45.4162 24.4924 45.1662 24.4924H45.1037ZM47.9801 24.5549H47.7301L47.9855 24.8049L48.1078 24.6799L47.9801 24.5549ZM49.3633 24.9298H48.6758C48.6794 25.0965 49.2891 25.3464 50.5047 25.6797H50.5672L50.5631 25.4922C50.2216 25.1173 49.8216 24.9298 49.3633 24.9298ZM32.1928 37.1144L32.2133 38.0517C32.2261 38.6349 33.0547 40.322 34.6992 43.113C35.8796 43.7378 37.1364 44.0502 38.4698 44.0502C41.3448 44.0502 44.1214 43.3629 46.7996 41.9882C47.8872 40.2803 48.8476 39.4264 49.6809 39.4264C50.1292 38.9681 50.595 37.406 51.0783 34.74C51.3952 33.9902 51.5449 33.2195 51.5276 32.428L51.5139 31.8032C51.4756 30.0536 51.2272 29.1788 50.7689 29.1788C49.7914 28.304 49.3008 27.7833 49.2972 27.6167L49.5389 27.2418C49.5353 27.0752 48.9256 26.8252 47.71 26.492L47.3295 26.242L47.3893 26.117H48.3268L48.3254 26.0546C48.3163 25.638 46.0404 25.4089 41.4979 25.3672L40.6188 25.1798C37.2927 25.513 35.6356 25.9504 35.6475 26.492C34.146 28.3249 33.1953 30.5743 32.7954 33.2403C32.3717 34.8233 32.1709 36.1146 32.1928 37.1144ZM50.2264 27.2418L49.9819 27.4917L49.9929 27.9916L50.3122 28.304H50.4997C50.6655 28.2624 50.7452 28.0957 50.7388 27.8041C50.7333 27.5542 50.6042 27.3667 50.3514 27.2418H50.2264ZM31.1243 33.9902C31.1271 34.1151 31.1909 34.1776 31.3159 34.1776C31.6076 34.1776 31.8068 33.761 31.9135 32.9279L31.9053 32.553H31.7178C31.5095 32.553 31.3117 33.0321 31.1243 33.9902ZM51.2061 43.4254L51.2143 43.8003C51.4643 43.8003 51.5934 43.9878 51.6016 44.3627H51.7266L52.0323 44.0502L52.0213 43.5504C51.8519 43.4254 51.764 43.2171 51.7576 42.9255H51.5701C51.321 42.9672 51.1997 43.1338 51.2061 43.4254ZM46.5295 43.9253L46.535 44.1752H46.5975C47.0105 44.0086 47.3379 43.7378 47.5797 43.3629L47.577 43.2379L47.4492 43.113H47.3242C47.0353 43.2379 46.7704 43.5087 46.5295 43.9253ZM40.2973 44.7376L40.3014 44.925H41.0514C43.7978 44.7584 45.31 44.3627 45.5879 43.7378L45.5838 43.5504H45.3963C42.1999 44.0919 40.5002 44.4876 40.2973 44.7376ZM54.5893 43.8003H54.5268L54.4753 44.3002L54.4931 45.1125L54.6222 45.2999H54.7472L54.8681 45.1125L54.8544 44.4876C54.8452 44.0711 54.7569 43.842 54.5893 43.8003ZM32.4766 44.3627H32.2266L32.2307 44.5501C32.2362 44.8001 32.9278 44.9875 34.3056 45.1125L34.3014 44.925C33.3349 44.5501 32.7266 44.3627 32.4766 44.3627ZM33.936 45.3624L33.7513 45.4874C33.7613 45.9456 35.0005 46.4038 37.4689 46.8621H37.7814L37.9037 46.7371L37.9023 46.6746C37.8922 46.2164 36.6952 45.779 34.311 45.3624H33.936ZM51.629 45.6124L51.322 45.8623L51.3247 45.9873H51.5122L51.7567 45.7373L51.754 45.6124H51.629ZM41.89 46.1122L41.8927 46.2372L42.0829 46.3622H42.4579C43.7894 46.2789 44.4534 46.1539 44.4497 45.9873L44.2595 45.8623H43.072C42.2803 45.8623 41.8863 45.9456 41.89 46.1122ZM55.0761 46.0498H54.7636L54.7677 46.2372L54.8954 46.3622H55.2079L55.2052 46.2372L55.0761 46.0498ZM37.7422 47.9243L37.7463 48.1118L37.8129 48.2992H38.6254C39.2921 48.2992 40.268 48.1534 41.5533 47.8618L41.5506 47.7369L39.734 47.5494C38.4024 47.6327 37.7385 47.7577 37.7422 47.9243ZM56.1199 48.0493C56.1652 48.2159 56.3754 48.2992 56.7504 48.2992H58.0004L58.4351 48.1743L58.4324 48.0493C58.4297 47.9243 58.1774 47.8202 57.6756 47.7369C56.6348 47.7785 56.1163 47.8827 56.1199 48.0493ZM60.2569 16.9942L64.5384 18.4314C64.5937 19.0562 64.8583 19.7228 65.3322 20.4309L65.4722 21.1182C65.1557 23.7843 65.1729 29.3246 65.524 37.7393C65.5504 38.9473 66.0678 39.7388 67.076 40.1137L67.5354 41.1134C67.5409 41.3634 68.9209 41.5925 71.6755 41.8008H71.9255C72.8005 41.8008 73.8633 40.8635 75.1139 38.989C76.092 37.9892 76.7413 37.1977 77.0618 36.6145H77.3743L77.3661 36.2396L77.2343 35.9272C77.4761 35.5523 77.6512 34.9899 77.7598 34.2401H77.8223L77.81 33.6777L78.6748 21.8056L78.6502 20.6809L78.5115 20.056L78.5101 19.9935C78.9611 19.6603 79.1789 19.1396 79.1634 18.4314C79.1533 17.9732 79.2937 17.7232 79.5844 17.6816L81.0384 18.4314H82.4134C84.08 18.4314 85.2753 18.7855 85.9991 19.4936L86.0046 19.7436C85.5463 19.7436 85.3189 19.8269 85.3226 19.9935L85.9791 21.4307H86.1666C86.2362 20.8058 86.3127 20.4934 86.3961 20.4934C86.5673 20.7017 86.6792 21.0558 86.7318 21.5556L86.2141 29.3038L86.3419 29.4288L86.3432 29.4912C86.0707 30.366 85.8343 32.8863 85.6339 37.0519L85.6736 38.864C85.733 41.5717 85.8876 42.9255 86.1376 42.9255H86.3876C87.1376 42.9255 88.3423 42.7589 90.0017 42.4256C90.1693 42.4673 90.5497 42.7172 91.1431 43.1755C91.0586 46.9246 90.8497 48.7991 90.5163 48.7991L89.8165 48.2367L87.9443 48.3617L81.004 48.2367C80.629 48.2367 80.2353 47.3828 79.8229 45.6749C79.5683 45.4666 79.4378 45.2166 79.4314 44.925L79.5441 44.3627H79.3566C79.0233 44.3627 77.8064 44.925 75.7061 46.0498C75.5875 46.3414 74.1424 46.9454 71.3708 47.8618C70.7531 48.1951 69.9271 48.5283 68.8927 48.8616C68.2595 48.4867 67.2513 48.1118 65.8681 47.7369C63.1865 45.1541 61.5325 42.8839 60.9063 40.926C59.7892 39.3847 59.1754 36.0938 59.065 31.0534L59.5923 23.7426L59.5881 23.5552C59.5863 23.4719 58.1637 23.2011 55.3203 22.7429C55.0621 22.3679 54.9143 21.3265 54.8769 19.6186C54.8522 18.4939 55.0274 17.9315 55.4024 17.9315C55.3924 17.4733 57.0105 17.1609 60.2569 16.9942ZM59.2108 17.7441L58.9635 17.869L58.9663 17.994H59.4038L59.401 17.869L59.2108 17.7441ZM60.7843 18.2439L60.4745 18.3689L60.4759 18.4314C60.4768 18.4731 60.7934 18.6605 61.4257 18.9938C61.4376 19.5353 61.4852 19.8061 61.5685 19.8061H61.9435C62.9435 19.8061 63.544 19.6394 63.745 19.3062L63.7423 19.1812C63.7359 18.8896 63.1059 18.6605 61.8522 18.4939C61.8504 18.4106 61.5986 18.3273 61.0968 18.2439H60.7843ZM56.5726 19.9935H55.7601L55.7642 20.181L55.8906 20.2435H56.0781L56.5767 20.181L56.5726 19.9935ZM56.5863 20.6184H56.0863L56.089 20.7433C56.1362 20.9933 56.3681 21.1182 56.7847 21.1182L56.8445 20.9933L56.8418 20.8683L56.5863 20.6184ZM79.8034 19.1187H79.6784C79.6876 19.5353 80.0255 19.7436 80.6921 19.7436H81.0671L81.2519 19.6186L81.2505 19.5561C81.246 19.3478 80.7636 19.202 79.8034 19.1187ZM58.2277 21.3682C58.2332 21.6181 58.9076 21.9722 60.251 22.4304H60.876C61.0427 22.4304 61.1228 22.2846 61.1164 21.993C60.648 21.5348 60.0792 21.2432 59.4097 21.1182H58.9097C58.4931 21.1182 58.2657 21.2016 58.2277 21.3682ZM57.4111 21.1807L57.1014 21.3057L57.1055 21.4932L57.1693 21.5556L57.1707 21.6181C57.5439 21.5348 57.7291 21.4307 57.7264 21.3057L57.7236 21.1807H57.4111ZM62.9262 21.8681L62.9522 23.0553L63.1424 23.1803C63.3897 23.0553 63.5092 22.8053 63.501 22.4304L63.4859 21.7431C63.4805 21.4932 63.4143 21.3265 63.2875 21.2432H63.1625C62.9967 21.2849 62.918 21.4932 62.9262 21.8681ZM56.0457 21.6181L55.8012 21.8681L55.9289 21.993H56.4289L56.6137 21.8681L56.3582 21.6181H56.0457ZM80.4097 21.1182L80.2264 21.3057L80.2291 21.4307C80.2327 21.5973 80.3804 21.6806 80.6721 21.6806H80.7346C81.0262 21.6806 81.1911 21.5973 81.2291 21.4307L81.2264 21.3057C81.182 21.1807 80.9722 21.1182 80.5972 21.1182H80.4097ZM60.2378 24.6799L60.2488 25.1798L61.1794 24.8673L61.1506 23.5552L61.0215 23.3677C60.8132 23.3677 60.552 23.8051 60.2378 24.6799ZM81.4354 27.9916L81.4408 28.2415H81.5033C81.92 28.2415 82.1178 27.7625 82.0969 26.8044C82.0461 26.3878 81.979 26.1795 81.8957 26.1795C81.7707 26.1795 81.6172 26.7836 81.4354 27.9916ZM83.9778 29.9286H83.7903L83.6708 30.1786C83.7587 30.3869 83.8443 30.491 83.9276 30.491H83.9901L83.9778 29.9286ZM61.5162 31.6782L61.3273 31.6157L61.0828 31.8657L61.0855 31.9906L61.3382 32.1156L61.5216 31.9282L61.5162 31.6782ZM80.6905 33.9277L81.0098 34.2401C81.2163 34.1568 81.3322 33.7402 81.3574 32.9904L81.2922 32.8654H81.1672C80.8393 33.1154 80.6804 33.4695 80.6905 33.9277ZM62.8127 33.8027L62.8223 34.2401C62.8342 34.7816 63.1141 35.1982 63.6622 35.4898H63.8497C63.8159 33.9485 63.674 33.1779 63.424 33.1779H63.174C62.9268 33.3028 62.8063 33.5111 62.8127 33.8027ZM80.5805 34.615L80.3971 34.8025L80.4094 35.3648L80.6024 35.6148C80.8497 35.4898 81.0331 35.3023 81.1526 35.0524L81.1471 34.8025L80.9555 34.615H80.5805ZM60.7206 35.3023L60.5372 35.4898L60.5427 35.7397C60.5783 37.3643 61.5089 39.9054 63.3347 43.3629C63.6726 43.5712 63.9041 43.6753 64.0291 43.6753L64.0222 43.3629L62.0988 38.3016C61.5151 36.3854 61.0766 35.3857 60.7831 35.3023H60.7206ZM82.1339 37.0519L81.8894 37.3019L81.8908 37.3643L82.1449 37.5518L82.3283 37.3643L82.2589 37.0519H82.1339ZM75.326 40.1137L75.3912 40.2387H75.4537C76.4245 38.9056 76.9076 38.135 76.9031 37.9267L76.9003 37.8017H76.7128C76.3886 38.2183 75.9264 38.989 75.326 40.1137ZM64.0906 37.9267L64.092 37.9892C64.2224 38.2391 64.3918 38.3641 64.6002 38.3641L64.5988 38.3016C64.5933 38.0517 64.4239 37.9267 64.0906 37.9267ZM82.0308 38.0517H81.9058L81.914 38.4266C81.9286 39.0931 82.0515 39.9471 82.2827 40.9885H82.4702C82.6232 40.3636 82.6932 39.7596 82.6805 39.1764L82.6709 38.739C82.6608 38.2808 82.4475 38.0517 82.0308 38.0517ZM78.6695 38.6765L78.4127 38.3641C78.17 38.6974 78.0504 38.9473 78.0541 39.1139L78.3707 39.3014H78.4332L78.6791 39.1139L78.6695 38.6765ZM80.8082 39.3014H80.6832L80.6928 39.7388H80.8178L81.0012 39.5513L80.9971 39.3639L80.8082 39.3014ZM65.9729 41.1134H65.9104L65.9145 41.3009L66.0436 41.4884H66.1061L66.102 41.3009L65.9729 41.1134ZM84.7868 41.1759L84.1823 42.1132L84.1864 42.3007H84.8114L85.0573 42.1132L85.0505 41.8008C85.0423 41.4259 84.9544 41.2176 84.7868 41.1759ZM78.9976 42.2382L78.9989 42.3007H79.1239L79.5532 41.9258L79.5477 41.6758C79.1727 41.6758 78.9893 41.8633 78.9976 42.2382ZM80.8698 42.1132L80.6864 42.3007L80.7029 43.0505C80.7668 45.9665 80.9445 47.4244 81.2362 47.4244H81.4237C81.7145 47.3828 81.8576 47.2578 81.853 47.0495C81.5069 46.4663 81.2861 44.9459 81.1905 42.4881L80.8698 42.1132ZM65.5642 42.4256H65.3767L65.3821 42.6756C65.4275 42.8422 65.5751 42.9255 65.8251 42.9255L65.8196 42.6756L65.5642 42.4256ZM67.1363 42.863H66.9488L66.9501 42.9255C66.9602 43.3837 67.7039 44.0502 69.1814 44.925C70.8335 44.2585 71.6577 43.842 71.6541 43.6753L71.6527 43.6128C70.5694 43.6128 69.0639 43.3629 67.1363 42.863ZM70.1869 45.175L70.1897 45.2999H70.9397C72.5564 44.925 73.6275 44.3627 74.1527 43.6128L74.1472 43.3629H73.8347C73.5847 43.3629 72.3688 43.9669 70.1869 45.175ZM88.5957 43.8628L86.6636 44.1127L86.6691 44.3627L87.0455 44.4252H87.2955C88.2112 44.3835 88.6664 44.2377 88.6609 43.9878L88.6582 43.8628H88.5957ZM88.6189 44.925H88.3689L88.3772 45.2999H88.6272L88.8119 45.175L88.8092 45.05C88.8074 44.9667 88.7439 44.925 88.6189 44.925ZM83.5784 45.9248L83.3936 46.0498L83.3977 46.2372C83.4856 46.4455 83.7379 46.5496 84.1545 46.5496H84.7795L84.9643 46.4247L84.9616 46.2997C84.957 46.0914 84.6834 45.9665 84.1409 45.9248H83.5784ZM69.0295 46.5496H68.5295L66.0241 46.2997H65.8991L65.6545 46.5496L65.6559 46.6121C65.6641 46.987 66.8399 47.4036 69.1833 47.8618C69.8916 47.8618 71.2761 47.3411 73.3366 46.2997L73.3977 46.2372L73.3936 46.0498H72.9561C71.7134 46.383 70.4045 46.5496 69.0295 46.5496ZM106.206 25.8671H106.519C106.769 25.8671 107.055 27.5125 107.377 30.8034H107.439C107.45 31.2616 105.333 31.6366 101.089 31.9282C96.1935 32.8863 93.1415 33.3653 91.9331 33.3653L91.9304 33.2403C91.9231 32.9071 93.6436 32.5113 97.0919 32.0531C98.6253 31.6782 99.3902 31.4074 99.3866 31.2408L99.3852 31.1783H98.7602C93.8499 31.4699 91.4067 32.1573 91.4304 33.2403L90.9359 33.4903C89.5192 33.4903 88.7785 32.0115 88.7136 29.0538C88.6963 28.2624 90.309 27.7 93.5517 27.3667C93.5489 27.2418 93.7559 27.1793 94.1726 27.1793L95.428 27.4292H96.053L106.206 25.8671ZM104.98 26.9294L104.606 26.9918L104.61 27.1793H105.173L105.482 27.0543L105.48 26.9294H104.98ZM101.871 27.6792H102.621C103.038 27.6792 103.265 27.5959 103.303 27.4292L103.302 27.3667H103.177C102.303 27.4501 101.868 27.5542 101.871 27.6792ZM98.5722 28.304L98.575 28.429C99.0333 28.429 99.2805 28.304 99.3167 28.0541H99.0042C98.7126 28.0541 98.5686 28.1374 98.5722 28.304ZM102.587 28.9914H103.962C105.294 28.908 106.019 28.7206 106.137 28.429L106.135 28.304L105.819 28.1791C103.659 28.4707 102.582 28.7414 102.587 28.9914ZM95.5832 28.8039L95.5886 29.0538H95.6511C96.5261 29.0538 97.1892 28.8872 97.6402 28.554L97.6375 28.429H97.5125C97.0125 28.429 96.3694 28.554 95.5832 28.8039ZM90.0207 28.8039L89.7761 29.0538L89.7939 29.8661L89.9217 29.9911H90.0467C90.1717 29.9911 90.2491 29.7204 90.2789 29.1788L90.2748 28.9914L90.1457 28.8039H90.0207ZM91.8332 28.8039L91.6511 29.0538L91.6539 29.1788H91.9664L92.0873 28.9914L92.0832 28.8039H91.8332ZM101.401 29.0538H101.276L101.279 29.1788H101.529L101.401 29.0538ZM100.63 30.9284L100.631 30.9909H100.756C104.462 30.8659 106.312 30.6993 106.308 30.491L106.305 30.366C106.219 30.2411 106.091 30.1161 105.922 29.9911H105.859C104.401 29.9911 102.658 30.3035 100.63 30.9284ZM89.934 30.5535L89.8131 30.7409L89.8159 30.8659H89.9409L90.1256 30.7409L90.1215 30.5535H89.934ZM108.529 8.99616L110.96 8.68373C113.261 9.1003 114.416 9.51687 114.425 9.93343C114.972 10.1834 115.484 10.7249 115.96 11.558C117.062 12.3912 118.361 14.6198 119.857 18.2439L121.872 21.8056C122.682 24.5133 123.274 25.8671 123.649 25.8671C124.149 25.8671 124.953 24.5341 126.061 21.8681C127.414 18.9521 129.378 15.3905 131.952 11.1831C132.737 10.8915 133.126 10.5791 133.119 10.2459C133.356 9.66267 133.681 9.28776 134.094 9.12113L134.908 9.18361C135.529 8.97533 136.171 8.82953 136.836 8.74622C139.678 9.12113 141.104 9.55852 141.115 10.0584L141.116 10.1209L141.562 24.7424L141.526 28.8039C141.771 30.5118 142.222 34.9066 142.877 41.9882L142.767 42.6756C143.105 42.8839 143.628 42.988 144.336 42.988C145.214 43.113 145.66 43.5087 145.675 44.1752L145.683 44.5501C145.743 47.2995 145.607 48.6741 145.274 48.6741H145.149C144.475 48.3409 143.783 48.1743 143.075 48.1743H139.388C135.554 48.1743 133.629 47.7785 133.612 46.987L133.765 45.4249L133.759 45.175C133.756 45.0083 133.604 44.7168 133.303 44.3002L133.295 43.9253C133.29 43.717 133.972 43.4879 135.342 43.2379L135.707 42.8005L135.512 42.4256L135.491 41.4884C135.477 40.8635 135.663 39.8429 136.049 38.4266L136.292 38.1142C135.993 37.7809 135.81 36.073 135.742 32.9904L135.659 29.1788L135.68 27.3043C135.504 26.846 135.407 26.242 135.391 25.4922L135.37 24.5549C135.35 23.6385 135.447 22.3679 135.662 20.7433C135.651 20.2435 135.844 19.577 136.243 18.7438L136.297 18.3689C135.974 16.9526 135.806 15.932 135.792 15.3071H135.605C134.912 16.0153 133.821 17.5774 132.333 19.9935C130.655 23.2844 129.129 25.9088 127.755 27.8666L125.333 31.4283C125.091 31.8032 124.741 31.9906 124.283 31.9906L123.526 31.6782C123.111 31.7615 122.801 31.8657 122.596 31.9906C122.096 31.9906 121.793 31.5116 121.689 30.5535C121.21 29.5954 120.543 28.6373 119.689 27.6792C119.005 26.8877 117.682 24.5133 115.72 20.5559L115.005 19.3062L114.161 17.869L114.222 17.8065H114.597C114.806 17.8065 114.978 18.0773 115.115 18.6188L115.18 18.7438H115.368L115.362 18.4939C115.335 17.2442 114.727 16.1194 113.538 15.1197H113.351L113.358 15.4321H112.858L112.866 15.807L112.817 16.4319L112.831 17.0567C113.698 26.2212 114.204 34.0943 114.348 40.6761C114.27 40.8843 114.126 40.9885 113.918 40.9885C113.751 40.9885 113.663 40.7594 113.653 40.3011L113.526 40.2387H113.401L113.243 41.5508C113.791 41.8424 114.069 42.1965 114.078 42.6131L113.97 43.3629C113.303 43.3629 112.967 43.2171 112.96 42.9255H112.773L112.592 43.2379L112.599 43.5504C112.602 43.717 113.442 43.9878 115.117 44.3627H115.367C115.658 44.3627 115.969 44.3002 116.3 44.1752C118.016 44.5085 118.877 44.8209 118.883 45.1125L118.889 45.3624L118.515 45.4249C118.223 45.4249 117.781 45.1958 117.187 44.7376H116.875C115.878 44.8625 115.381 45.0292 115.386 45.2375C115.431 45.4041 115.579 45.4874 115.829 45.4874H116.704C117.957 45.6124 118.587 45.8415 118.594 46.1747L118.733 46.7996L118.741 47.1745C118.753 47.716 118.322 48.0285 117.449 48.1118C116.817 47.8202 116.168 47.6744 115.502 47.6744L115.503 47.7369C115.506 47.8618 115.716 47.9243 116.132 47.9243C116.677 48.0493 116.95 48.1743 116.953 48.2992L116.267 48.3617C115.017 48.3617 112.512 48.1326 108.752 47.6744L107.199 48.1118C106.445 47.9451 106.063 47.6327 106.053 47.1745L106.045 46.7996C105.545 46.7996 105.2 46.2789 105.011 45.2375L104.946 45.1125L104.939 44.8001C105.379 43.9669 106.203 43.5504 107.411 43.5504C108.448 43.3004 108.964 43.113 108.961 42.988L108.96 42.9255L107.264 13.995L107.33 11.3081L107.058 10.3083C107.039 9.43355 107.529 8.99616 108.529 8.99616ZM113.05 12.8077C113.57 13.7242 114.406 14.8073 115.559 16.057L117.973 20.6809H118.16C118.145 19.9727 117.286 17.869 115.584 14.3699C115.578 14.0783 115.15 13.5576 114.3 12.8077L114.167 12.4328H113.792C113.293 12.4745 113.046 12.5995 113.05 12.8077ZM112.418 32.428C112.34 32.678 112.304 32.9487 112.31 33.2403L112.387 36.7395L112.522 40.0512L112.587 40.1762H112.712C113.129 40.1762 113.393 39.8846 113.506 39.3014L113.497 38.9265C113.331 38.9265 113.201 38.6974 113.107 38.2391L113.145 37.1144L113.144 37.0519C113.122 36.0522 113.001 35.3023 112.782 34.8025L112.95 33.9277C112.889 33.0112 112.711 32.5113 112.418 32.428ZM127.939 21.993L128.067 22.118C128.395 21.9097 128.817 21.1807 129.331 19.931C129.698 19.5561 130.015 18.8271 130.283 17.7441L130.281 17.6191L130.028 17.4941C129.444 17.4941 128.748 18.9938 127.939 21.993ZM139.939 21.993C140.082 24.7007 140.3 26.117 140.595 26.242L140.717 26.117L140.673 24.1175C140.638 22.5346 140.55 21.3474 140.407 20.5559H140.22C140.012 20.5559 139.918 21.0349 139.939 21.993ZM111.999 24.7424C112.131 26.9502 112.301 28.0541 112.509 28.0541H112.634L112.616 27.2418C112.588 25.9504 112.518 24.6382 112.405 23.3052H112.343C112.176 23.3052 112.062 23.7843 111.999 24.7424ZM110.855 15.3071H110.542L110.488 15.6821L110.536 17.869C110.552 18.6188 110.665 18.9938 110.873 18.9938C111.082 18.9938 111.174 18.4522 111.15 17.3691C111.131 16.4944 111.033 15.807 110.855 15.3071ZM140.98 38.1142C140.735 38.3641 140.621 38.8432 140.636 39.5513L140.657 40.4886L140.915 40.8635H141.29C141.415 40.8635 141.494 40.6552 141.526 40.2387C141.329 38.8223 141.146 38.1142 140.98 38.1142ZM109.843 34.74L109.907 34.8025C110.282 34.8025 110.456 34.1776 110.429 32.9279L110.385 30.9284L110.314 30.5535C110.106 30.5535 109.949 31.949 109.843 34.74ZM108.409 12.0579L108.348 12.1204L108.349 12.1829C108.558 14.0991 108.766 15.0572 108.974 15.0572C109.135 14.7656 109.21 14.3907 109.2 13.9325L109.189 13.4326C109.17 12.5578 108.91 12.0996 108.409 12.0579ZM105.99 44.3002L105.744 44.4876L105.751 44.8001C105.758 45.0917 106.015 45.4457 106.524 45.8623H106.649C106.774 45.8623 106.855 45.7165 106.89 45.4249C106.832 44.6751 106.699 44.3002 106.49 44.3002H105.99ZM138.895 37.1144H138.645C138.37 37.8642 138.239 38.5307 138.252 39.1139C138.388 39.6138 138.539 39.8637 138.706 39.8637H138.831L138.898 37.2394L138.895 37.1144ZM109.955 11.3081H109.892L109.9 11.683C110.226 13.2243 110.534 13.995 110.826 13.995H111.014L111.008 13.745L110.547 12.6828C110.534 12.0579 110.336 11.5997 109.955 11.3081ZM110.006 39.3014L110.028 40.3011L110.28 40.4261H110.405L110.563 39.0514L110.491 38.614H110.366C110.199 38.614 110.079 38.8432 110.006 39.3014ZM111.114 47.112L110.743 47.2995C111.039 47.4661 111.395 47.5494 111.811 47.5494H111.999L112.621 47.4244L112.616 47.1745L111.114 47.112ZM134.334 11.4956L134.398 11.558C134.523 11.558 134.808 11.2664 135.254 10.6833L135.245 10.3083H135.058C134.729 10.5166 134.488 10.9124 134.334 11.4956ZM110.142 28.429H110.017L110.03 28.9914L110.031 29.0538C110.045 29.6787 110.135 29.9911 110.302 29.9911L110.475 29.3663C110.378 28.7414 110.267 28.429 110.142 28.429ZM135.005 44.9875L134.823 45.2375L134.829 45.4874L134.957 45.6124L135.827 45.4249L135.823 45.2375C135.778 45.0708 135.63 44.9875 135.38 44.9875H135.005ZM109.223 20.6809H108.973L109.007 22.243L109.197 22.3679H109.26L109.363 21.3682L109.359 21.1807L109.223 20.6809ZM125.055 27.3043H124.868C124.626 27.6792 124.507 27.9708 124.512 28.1791L124.515 28.304H124.702C124.911 28.304 125.03 28.0333 125.059 27.4917L125.055 27.3043ZM113.559 47.4244H113.121L113.124 47.5494L113.878 47.7369H114.878L114.874 47.5494L113.559 47.4244ZM111.565 10.6208L111.191 10.6833L111.195 10.8707C111.197 10.954 111.366 11.0373 111.701 11.1206C111.949 11.0373 112.072 10.954 112.07 10.8707L112.067 10.7457L111.877 10.6208H111.565ZM133.613 12.8077H133.738H133.8C134.044 12.5161 134.163 12.2662 134.159 12.0579L134.156 11.933H134.093C133.765 12.1412 133.604 12.4328 133.613 12.8077ZM135.42 46.7996L134.985 46.9246L134.989 47.112L135.178 47.1745H135.866L135.864 47.112C135.776 46.9037 135.628 46.7996 135.42 46.7996ZM141.304 41.4884H140.741L140.744 41.6133L141.065 41.9882H141.19L141.497 41.7383L141.494 41.6133L141.304 41.4884ZM113.701 11.1206L113.702 11.1831H114.39L114.451 11.1206L114.448 10.9957L114.383 10.8707C113.966 10.8707 113.739 10.954 113.701 11.1206ZM137.849 20.7433L137.853 20.9308L137.982 21.1182C138.148 21.0766 138.228 20.9308 138.223 20.6809L138.214 20.3059H138.089C137.924 20.3476 137.844 20.4934 137.849 20.7433ZM112.242 30.1161L112.247 30.366L112.328 31.1783H112.515L112.506 30.7409C112.496 30.3244 112.409 30.1161 112.242 30.1161ZM113.192 42.1132L113.008 42.2382L113.199 42.4256H113.449L113.57 42.2382L113.442 42.1132H113.192ZM137.054 41.4884H136.866L136.812 41.8633L136.815 41.9882H137.002L137.06 41.8008L137.054 41.4884ZM139.569 42.1757L139.324 42.4256L139.453 42.6131H139.828L139.824 42.4256L139.569 42.1757ZM137.887 22.4929H137.762L137.768 22.7429L137.901 23.1178H138.026L138.016 22.6804L137.887 22.4929ZM138.074 19.6186H138.199C138.323 19.5353 138.381 19.3478 138.375 19.0562C138.168 19.1396 138.068 19.327 138.074 19.6186ZM139.017 34.1151H138.83L138.771 34.3026L139.025 34.49L139.146 34.3026L139.145 34.2401L139.017 34.1151ZM139.102 40.8635H138.727L138.733 41.1134H138.92L139.104 40.926L139.102 40.8635ZM106.919 46.7371H106.669L106.673 46.9246L106.802 47.112L106.924 46.987H106.987L106.919 46.7371ZM108.254 10.6833H108.066L108.07 10.8707L108.198 10.9957H108.26L108.254 10.6833ZM109.997 41.7383H109.872L109.878 42.0507H110.066L110.062 41.8633L109.997 41.7383ZM149.609 3.87239L151.727 3.55996C153.186 3.55996 154.348 4.30978 155.214 5.80942L155.696 7.80894C155.63 8.60042 155.194 9.64184 154.389 10.9332C153.859 11.4747 153.032 11.7455 151.907 11.7455C149.282 11.7455 147.648 11.3498 147.006 10.5583C146.363 9.72515 146.045 8.55876 146.054 7.05912C145.887 7.05912 145.803 7.01747 145.801 6.93415L145.799 6.80918C147.006 4.85132 148.276 3.87239 149.609 3.87239ZM148.394 5.43451L148.395 5.497C149.808 5.33037 150.512 5.14292 150.508 4.93463L150.192 4.80966C148.989 5.01795 148.389 5.22623 148.394 5.43451ZM149.496 7.24658H149.558L149.935 7.30906H150.06C150.518 7.30906 150.806 7.14244 150.924 6.80918L150.858 6.68421H150.108C149.775 6.68421 149.571 6.87167 149.496 7.24658ZM153.983 6.68421L153.803 6.99664L153.808 7.24658H153.871L154.053 6.99664L154.046 6.68421H153.983ZM152.529 8.74622L152.533 8.93367H152.783C153.074 8.93367 153.3 8.78788 153.461 8.49628L153.457 8.30882H153.332C153.04 8.30882 152.772 8.45462 152.529 8.74622ZM151.178 9.87095L150.995 10.0584L150.998 10.1834H152.123L152.307 10.0584L152.116 9.87095H151.178ZM143.371 15.807H143.558C143.898 16.0986 144.318 16.2444 144.818 16.2444L145.622 15.8695C151.289 15.8695 154.126 16.0361 154.133 16.3694L154.205 16.8068L154.229 17.869C154.622 18.7022 154.827 19.4936 154.843 20.2435L154.865 21.2432C154.514 28.0333 154.301 33.5319 154.226 37.7393C154.149 37.9892 154.075 38.4266 154.005 39.0514C154.051 39.2181 154.24 39.3014 154.573 39.3014H154.761C157.011 39.3014 158.142 39.5722 158.154 40.1137L158.094 40.2387L158.102 40.6136C158.624 41.6133 158.909 43.1963 158.956 45.3624L159.261 47.8618L159.076 47.9868L156.329 48.1118H150.079C145.412 48.1118 143.071 47.7369 143.054 46.987C143.044 46.5288 142.909 46.0706 142.649 45.6124C142.768 45.3208 142.971 45.0917 143.259 44.925H143.446C143.617 45.0917 143.806 45.175 144.014 45.175H144.139C145.348 45.175 146.783 45.0708 148.445 44.8625L148.442 44.7376C144.854 44.4876 143.055 44.196 143.048 43.8628L142.975 43.3629L142.96 42.6756L142.799 41.051C142.79 40.6344 144.348 40.4261 147.473 40.4261C147.89 40.4261 148.077 39.4888 148.036 37.6143L148.426 21.1807H148.301C147.134 21.1807 146.549 21.0974 146.546 20.9308C146.545 20.8891 146.606 20.8267 146.729 20.7433C144.229 20.7433 142.973 20.4517 142.96 19.8685C142.792 19.8269 142.705 19.6603 142.699 19.3687L142.995 18.6188C142.991 18.4522 142.861 18.2231 142.605 17.9315C142.931 17.5983 143.145 16.9318 143.249 15.932L143.371 15.807ZM144.398 17.0567L144.404 17.3067H144.716C145.8 17.3067 146.339 17.2234 146.336 17.0567L146.205 16.8068H146.018C144.934 16.8068 144.395 16.8901 144.398 17.0567ZM152.889 16.6193L152.705 16.8068L152.959 16.9942H153.084L153.08 16.8068L152.889 16.6193ZM145.792 17.9315H144.667L144.672 18.119C144.675 18.2856 144.969 18.3689 145.552 18.3689H146.239H146.427H148.489C149.114 18.3689 149.425 18.2648 149.42 18.0565L149.419 17.994C149.414 17.7857 148.205 17.7649 145.792 17.9315ZM151.356 17.994L150.792 17.9315L150.795 18.0565C151.087 18.0565 151.446 18.2648 151.871 18.6813H151.996C152.08 18.6813 152.12 18.6188 152.117 18.4939H152.242C152.409 18.4939 152.517 18.6813 152.567 19.0562H152.692L153.553 18.4314L153.545 18.0565L152.231 17.994H151.356ZM151.183 21.4932L151.516 22.4304L151.103 23.5552C151.278 23.9301 151.428 24.1175 151.553 24.1175H151.615L151.732 23.7426L151.724 23.3677C151.691 21.8681 151.904 21.1182 152.362 21.1182L152.544 20.8683L152.539 20.6184L152.347 20.4309H151.972C151.431 20.4309 151.167 20.785 151.183 21.4932ZM149.376 27.4292L149.365 35.4898C149.413 35.7814 149.478 35.9272 149.562 35.9272C149.687 35.9272 149.766 35.7397 149.799 35.3648L149.716 34.4276C149.92 34.2193 150.131 33.3861 150.349 31.9282L150.341 31.5532L150.197 30.6785C150.442 30.4702 150.564 30.3244 150.562 30.2411C150.385 29.7828 150.292 29.3246 150.282 28.8664L150.279 28.7414C150.446 28.7414 150.603 26.4086 150.751 21.7431C150.619 21.4098 150.49 21.2432 150.365 21.2432C149.74 21.2432 149.41 23.3052 149.376 27.4292ZM152.318 21.9306L152.069 21.993L152.077 22.3679C152.083 22.6179 152.191 22.8053 152.402 22.9303H152.589L152.771 22.6804L152.765 22.3679C152.677 22.1597 152.528 22.0139 152.318 21.9306ZM152.228 32.1156H151.916C151.616 33.6569 151.475 34.8025 151.491 35.5523H151.554C151.762 35.5523 152.014 34.6983 152.31 32.9904L152.3 32.553L152.228 32.1156ZM151.169 37.9892L151.179 38.4266H151.304C151.511 38.3433 151.609 38.0933 151.6 37.6768L151.591 37.2394H151.403C151.32 37.2394 151.242 37.4893 151.169 37.9892ZM151.315 38.9265L151.133 39.1764L151.14 39.4888H151.327L151.573 39.3014L151.569 39.1139L151.377 38.9265H151.315ZM156.348 40.4261L156.162 40.4886C156.416 40.6969 156.877 40.8219 157.545 40.8635L157.541 40.6761C157.537 40.5094 157.265 40.4261 156.723 40.4261H156.348ZM156.655 43.0505L155.909 43.2379C156.004 43.7378 156.384 43.9878 157.051 43.9878H157.238L157.234 43.8003L157.105 43.6128C157.104 43.5712 157.268 43.4462 157.597 43.2379L157.59 42.9255C157.584 42.6339 157.497 42.4673 157.329 42.4256H157.079C156.955 42.4673 156.814 42.6756 156.655 43.0505ZM144.706 42.4881L144.271 42.6131L144.272 42.6756C144.613 43.0088 145.909 43.1963 148.159 43.2379H148.597C148.93 43.2379 149.136 43.1338 149.215 42.9255L149.212 42.8005C147.458 42.5923 145.956 42.4881 144.706 42.4881ZM150.597 43.2379L150.854 43.5504C151.229 43.5504 151.412 43.3421 151.403 42.9255H151.09C150.84 42.9255 150.676 43.0297 150.597 43.2379ZM156.499 44.4876L156.317 44.7376L156.32 44.8625H156.445L156.627 44.6126L156.624 44.4876H156.499ZM151.695 44.8625L150.884 44.925H150.009L150.014 45.175L150.891 45.2375L152.701 45.1125L152.696 44.925H152.446L151.695 44.8625ZM158.117 46.987L157.871 47.1745L157.875 47.3619H158.25L158.308 47.1745L158.242 46.987H158.117ZM178.818 18.8688C180.443 18.8688 181.843 20.0143 183.018 22.3055C183.227 22.3055 183.524 22.5762 183.911 23.1178L184.825 27.7417C184.544 28.2415 183.445 28.4915 181.529 28.4915H180.904C179.357 28.2415 178.574 27.7208 178.557 26.9294C178.544 26.3462 178.047 25.5339 177.066 24.4924C176.937 24.2842 176.039 24.18 174.372 24.18C172.789 24.18 170.881 24.5966 168.649 25.4297C167.102 27.096 166.089 28.3873 165.609 29.3038C166.057 36.4271 166.259 40.8843 166.215 42.6756C166.223 43.0505 166.477 43.2379 166.977 43.2379H168.477C169.145 43.2796 169.481 43.4046 169.485 43.6128L169.487 43.6753L169.754 44.4876L169.706 47.9868L169.342 48.4867L166.411 48.7991H166.161L164.92 49.174C160.124 49.0074 157.724 48.8199 157.72 48.6116C156.886 48.6116 156.462 48.2367 156.445 47.4869C156.345 46.7371 156.287 45.9665 156.269 45.175C156.252 44.3835 157.053 43.8628 158.673 43.6128C158.665 43.2796 159.224 43.113 160.349 43.113L160.535 43.0505L160.533 42.9255L159.782 25.8046C159.76 24.7632 159.477 24.2425 158.936 24.2425H158.561C158.061 24.2425 157.232 24.4716 156.076 24.9298L155.948 24.8049L155.945 24.6799C155.943 24.5966 156.108 24.4924 156.438 24.3675L156.436 24.2425C156.019 24.2425 155.785 23.0761 155.734 20.7433C155.651 20.7433 155.58 20.3684 155.522 19.6186C157.16 18.3273 158.896 17.6816 160.729 17.6816H162.292C162.917 17.6816 163.984 17.8899 165.493 18.3064L165.497 18.4939C165.135 19.0771 164.957 19.4936 164.962 19.7436L164.972 20.181C168.314 18.6813 172.929 18.2439 178.818 18.8688ZM162.65 28.304L162.657 28.6164C162.874 29.033 162.988 29.4704 162.998 29.9286C162.96 30.0953 162.916 30.9492 162.866 32.4905L163.046 34.9899H163.109C163.234 34.9899 163.358 33.0529 163.481 29.1788C163.565 29.1788 163.597 28.7622 163.579 27.9291C163.529 27.5542 163.421 27.3667 163.254 27.3667H163.129C162.8 27.575 162.641 27.8875 162.65 28.304ZM159.313 47.1745L158.502 47.237L158.505 47.3619C158.509 47.5702 159.116 47.6744 160.324 47.6744H162.199L162.635 47.6119C162.631 47.4036 161.523 47.2578 159.313 47.1745ZM169.564 21.5556L169.567 21.6806C169.942 21.6806 170.429 21.0766 171.027 19.8685L171.021 19.5561H170.958C169.882 19.8894 169.417 20.5559 169.564 21.5556ZM177.671 23.5552H177.983C178.191 23.5135 178.575 23.0136 179.138 22.0555L179.136 21.993C179.135 21.9097 179.05 21.8681 178.884 21.8681C178.183 22.2013 177.838 22.6387 177.85 23.1803C177.808 23.1803 177.749 23.3052 177.671 23.5552ZM163.327 24.9923H163.077L162.793 26.3045C162.798 26.5128 162.928 26.7211 163.182 26.9294H163.245C163.37 26.9294 163.467 26.6378 163.538 26.0546L163.327 24.9923ZM171.909 20.181L172.249 21.4307H172.749L172.72 20.1185L172.529 19.931H172.341C172.05 19.9727 171.906 20.056 171.909 20.181ZM158.854 46.1747L158.732 46.2997L158.797 46.4247H162.234L162.23 46.2372L160.104 46.1747H158.854ZM157.158 20.1185C157.498 20.4517 157.856 20.6184 158.231 20.6184L158.291 20.4934L158.281 20.056L158.025 19.7436C157.443 19.8269 157.154 19.9519 157.158 20.1185ZM164.051 46.6121L164.243 46.7996H165.18L165.425 46.5496C165.423 46.4663 165.317 46.383 165.107 46.2997C164.4 46.383 164.048 46.4872 164.051 46.6121ZM181.507 21.8056H181.32L181.323 21.9306C181.663 22.2638 181.958 22.4304 182.208 22.4304H182.396L182.393 22.3055C182.053 21.9722 181.757 21.8056 181.507 21.8056ZM160.005 18.8688H159.818L159.823 19.1187L160.208 19.5561H160.771L160.768 19.4312L160.005 18.8688ZM158.211 22.5554L158.214 22.6804H158.401C158.86 22.6804 159.108 22.5971 159.146 22.4304L159.017 22.243H158.892C158.517 22.243 158.29 22.3471 158.211 22.5554ZM174.147 19.6186L173.398 19.6811L173.4 19.7436L173.529 19.931H174.154C174.445 19.931 174.61 19.8477 174.648 19.6811L174.522 19.6186H174.147ZM164.713 39.7388L164.467 39.9262L164.478 40.4261H164.728L164.974 40.2387L164.966 39.8637L164.838 39.7388H164.713ZM157.362 46.5496L157.107 46.2997L156.987 46.5496L156.993 46.7996L157.122 46.987H157.372L157.362 46.5496ZM165.594 22.9303L165.346 22.9928L165.35 23.1803L165.604 23.3677H165.792L165.975 23.1803L165.971 22.9928L165.594 22.9303ZM175.396 19.5561L175.398 19.6811H175.836L176.082 19.4936L175.89 19.3062C175.559 19.3895 175.394 19.4728 175.396 19.5561ZM179.521 19.5561L179.398 19.6811L179.4 19.7436L179.529 19.931H179.779L179.9 19.7436L179.898 19.6811L179.771 19.5561H179.521ZM164.319 18.9313L164.01 19.0562L164.015 19.3062H164.328L164.51 19.0562L164.319 18.9313ZM164.156 20.056L163.911 20.2435L163.913 20.3684L164.041 20.4934L164.348 20.2435L164.344 20.056H164.156ZM179.458 25.2423L179.46 25.3672H179.585L179.831 25.1798L179.827 24.9923H179.765C179.559 25.1173 179.457 25.2006 179.458 25.2423ZM177.212 19.7436L176.966 19.931L176.968 19.9935H177.28L177.402 19.8685L177.4 19.7436H177.212ZM164.743 41.1134H164.618L164.623 41.3634H164.748L164.743 41.1134ZM204.885 18.8688C206.51 18.8688 207.911 20.0143 209.086 22.3055C209.294 22.3055 209.592 22.5762 209.979 23.1178L210.892 27.7417C210.612 28.2415 209.513 28.4915 207.596 28.4915H206.971C205.424 28.2415 204.642 27.7208 204.625 26.9294C204.612 26.3462 204.115 25.5339 203.134 24.4924C203.004 24.2842 202.106 24.18 200.439 24.18C198.856 24.18 196.948 24.5966 194.717 25.4297C193.17 27.096 192.157 28.3873 191.677 29.3038C192.124 36.4271 192.326 40.8843 192.282 42.6756C192.29 43.0505 192.544 43.2379 193.044 43.2379H194.544C195.212 43.2796 195.548 43.4046 195.553 43.6128L195.554 43.6753L195.822 44.4876L195.774 47.9868L195.409 48.4867L192.479 48.7991H192.229L190.987 49.174C186.192 49.0074 183.792 48.8199 183.787 48.6116C182.954 48.6116 182.529 48.2367 182.513 47.4869C182.413 46.7371 182.354 45.9665 182.337 45.175C182.32 44.3835 183.121 43.8628 184.74 43.6128C184.733 43.2796 185.292 43.113 186.417 43.113L186.603 43.0505L186.6 42.9255L185.85 25.8046C185.827 24.7632 185.545 24.2425 185.003 24.2425H184.628C184.128 24.2425 183.3 24.4716 182.143 24.9298L182.016 24.8049L182.013 24.6799C182.011 24.5966 182.175 24.4924 182.506 24.3675L182.503 24.2425C182.087 24.2425 181.853 23.0761 181.802 20.7433C181.718 20.7433 181.647 20.3684 181.589 19.6186C183.228 18.3273 184.964 17.6816 186.797 17.6816H188.359C188.984 17.6816 190.052 17.8899 191.561 18.3064L191.565 18.4939C191.203 19.0771 191.024 19.4936 191.03 19.7436L191.039 20.181C194.381 18.6813 198.997 18.2439 204.885 18.8688ZM188.717 28.304L188.724 28.6164C188.942 29.033 189.055 29.4704 189.065 29.9286C189.027 30.0953 188.984 30.9492 188.934 32.4905L189.114 34.9899H189.176C189.301 34.9899 189.425 33.0529 189.549 29.1788C189.632 29.1788 189.665 28.7622 189.647 27.9291C189.597 27.5542 189.488 27.3667 189.322 27.3667H189.197C188.868 27.575 188.708 27.8875 188.717 28.304ZM185.381 47.1745L184.57 47.237L184.572 47.3619C184.577 47.5702 185.183 47.6744 186.392 47.6744H188.267L188.703 47.6119C188.698 47.4036 187.591 47.2578 185.381 47.1745ZM195.632 21.5556L195.635 21.6806C196.01 21.6806 196.496 21.0766 197.095 19.8685L197.088 19.5561H197.026C195.949 19.8894 195.485 20.5559 195.632 21.5556ZM203.738 23.5552H204.051C204.258 23.5135 204.643 23.0136 205.205 22.0555L205.204 21.993C205.202 21.9097 205.118 21.8681 204.951 21.8681C204.25 22.2013 203.906 22.6387 203.917 23.1803C203.876 23.1803 203.816 23.3052 203.738 23.5552ZM189.395 24.9923H189.145L188.861 26.3045C188.865 26.5128 188.995 26.7211 189.25 26.9294H189.312C189.437 26.9294 189.535 26.6378 189.605 26.0546L189.395 24.9923ZM197.977 20.181L198.317 21.4307H198.817L198.788 20.1185L198.596 19.931H198.409C198.118 19.9727 197.974 20.056 197.977 20.181ZM184.921 46.1747L184.799 46.2997L184.864 46.4247H188.302L188.298 46.2372L186.171 46.1747H184.921ZM183.225 20.1185C183.566 20.4517 183.924 20.6184 184.299 20.6184L184.359 20.4934L184.349 20.056L184.092 19.7436C183.511 19.8269 183.222 19.9519 183.225 20.1185ZM190.118 46.6121L190.31 46.7996H191.248L191.492 46.5496C191.49 46.4663 191.384 46.383 191.174 46.2997C190.468 46.383 190.116 46.4872 190.118 46.6121ZM207.575 21.8056H207.387L207.39 21.9306C207.731 22.2638 208.026 22.4304 208.276 22.4304H208.464L208.461 22.3055C208.12 21.9722 207.825 21.8056 207.575 21.8056ZM186.073 18.8688H185.885L185.891 19.1187L186.276 19.5561H186.838L186.835 19.4312L186.073 18.8688ZM184.279 22.5554L184.281 22.6804H184.469C184.927 22.6804 185.175 22.5971 185.214 22.4304L185.084 22.243H184.959C184.584 22.243 184.358 22.3471 184.279 22.5554ZM200.214 19.6186L199.466 19.6811L199.467 19.7436L199.596 19.931H200.221C200.513 19.931 200.678 19.8477 200.716 19.6811L200.589 19.6186H200.214ZM190.78 39.7388L190.534 39.9262L190.545 40.4261H190.795L191.041 40.2387L191.033 39.8637L190.905 39.7388H190.78ZM183.43 46.5496L183.174 46.2997L183.055 46.5496L183.06 46.7996L183.189 46.987H183.439L183.43 46.5496ZM191.662 22.9303L191.413 22.9928L191.417 23.1803L191.672 23.3677H191.859L192.042 23.1803L192.038 22.9928L191.662 22.9303ZM201.463 19.5561L201.466 19.6811H201.903L202.149 19.4936L201.958 19.3062C201.626 19.3895 201.461 19.4728 201.463 19.5561ZM205.588 19.5561L205.466 19.6811L205.467 19.7436L205.596 19.931H205.846L205.967 19.7436L205.966 19.6811L205.838 19.5561H205.588ZM190.387 18.9313L190.077 19.0562L190.083 19.3062H190.395L190.577 19.0562L190.387 18.9313ZM190.224 20.056L189.978 20.2435L189.981 20.3684L190.109 20.4934L190.416 20.2435L190.411 20.056H190.224ZM205.525 25.2423L205.528 25.3672H205.653L205.899 25.1798L205.895 24.9923H205.832C205.627 25.1173 205.524 25.2006 205.525 25.2423ZM203.28 19.7436L203.034 19.931L203.035 19.9935H203.348L203.47 19.8685L203.467 19.7436H203.28ZM190.81 41.1134H190.685L190.691 41.3634H190.816L190.81 41.1134ZM223.943 18.4314L225.704 18.9313H226.267C228.667 20.0977 230.906 21.4932 232.984 23.1178C235.149 24.9507 236.241 26.3253 236.261 27.2418H236.136C235.79 26.6586 235.451 26.367 235.117 26.367H235.055C234.93 26.367 234.869 26.4503 234.873 26.6169C235.049 27.0752 235.442 27.8666 236.05 28.9914H236.175C236.258 28.9914 236.358 28.7831 236.474 28.3665H236.536C236.662 28.4082 236.821 29.0122 237.013 30.1786L237.603 31.4283L237.496 32.2406L237.733 34.49C237.464 35.5315 237.223 36.9061 237.011 38.614C236.861 39.4055 234.989 42.3631 231.393 47.4869C229.761 49.0699 228.153 49.8613 226.57 49.8613C225.115 50.028 223.471 50.1113 221.638 50.1113H220.45C219.742 50.1113 217.874 49.5073 214.848 48.2992C210.982 44.925 209.03 42.3423 208.991 40.5511C208.424 39.4264 207.943 38.3849 207.547 37.4268C207.535 36.8853 208.059 35.0941 209.117 32.0531C209.075 30.1369 209.504 28.8039 210.404 28.0541C212.27 23.8468 214.69 21.1182 217.662 19.8685C220.266 18.9104 222.36 18.4314 223.943 18.4314ZM213.123 38.0517L213.132 38.4266C213.74 39.5513 214.412 40.7594 215.148 42.0507C215.158 42.4673 215.962 43.0505 217.562 43.8003C218.331 44.6751 219.742 45.3624 221.794 45.8623L222.922 45.9873C224.747 45.6124 226.114 45.2166 227.021 44.8001L229.23 42.9255C231.509 40.4261 232.588 38.3225 232.467 36.6145L232.455 36.0522C232.19 35.3857 232.041 34.3026 232.008 32.8029C231.983 31.6366 232.046 30.7201 232.198 30.0536C232.192 29.762 231.363 29.033 229.713 27.8666C228.509 26.2004 227.279 25.1798 226.021 24.8049H225.271C220.4 25.0131 217.971 25.4089 217.984 25.9921C216.924 27.0752 216.198 28.1374 215.804 29.1788C214.502 30.5951 213.855 31.5324 213.866 31.9906C213.528 33.6986 213.281 35.7189 213.123 38.0517ZM214.729 22.9303L214.549 23.2427L214.554 23.4927C214.804 23.4927 216.056 22.6179 218.309 20.8683L218.805 20.6809L219.182 20.7433C221.967 20.4517 223.357 20.181 223.351 19.931L223.35 19.8685L222.346 19.6811C219.512 19.6811 216.974 20.7642 214.729 22.9303ZM219.633 24.2425L219.635 24.305L219.764 24.4924H220.639L225.054 23.4927L225.052 23.3677L223.859 23.1178C221.033 23.451 219.624 23.8259 219.633 24.2425ZM210.162 39.8013L209.916 39.9887L209.925 40.4261C210.04 41.8424 210.453 42.6339 211.165 42.8005L211.226 42.7381L211.225 42.6756C210.891 40.7594 210.537 39.8013 210.162 39.8013ZM219.462 22.118L219.469 22.4304C222.71 22.0555 224.33 21.8056 224.327 21.6806L223.823 21.4932H223.76C221.76 21.4932 220.328 21.7014 219.462 22.118ZM224.722 19.7436C224.943 20.3268 225.408 20.6184 226.116 20.6184L226.743 20.6809L226.866 20.6184L226.859 20.3059C226.849 19.8477 226.406 19.577 225.529 19.4936C224.988 19.5353 224.719 19.6186 224.722 19.7436ZM213.925 46.1122H213.487L213.493 46.3622C214.046 46.9037 215.032 47.1745 216.448 47.1745H217.136C216.921 46.8829 215.851 46.5288 213.925 46.1122ZM224.288 48.4242L224.291 48.5492C224.294 48.6741 224.608 48.7783 225.235 48.8616C225.944 48.8616 226.295 48.7574 226.291 48.5492L226.288 48.4242C226.243 48.2576 226.093 48.0909 225.84 47.9243H225.277C224.819 47.9243 224.489 48.0909 224.288 48.4242ZM235.903 36.552C235.972 37.8017 236.091 38.4683 236.259 38.5516H236.384C236.374 38.0933 236.551 37.5935 236.914 37.0519L236.91 36.8645L236.202 35.9272H236.077C235.993 35.9272 235.936 36.1355 235.903 36.552ZM231.542 25.8046H231.292C231.554 26.3462 232.169 26.8044 233.135 27.1793H233.385L233.568 26.9918L233.567 26.9294C232.842 26.1795 232.167 25.8046 231.542 25.8046ZM230.125 23.8676L230.128 23.9926C230.264 24.4924 230.858 25.0131 231.912 25.5547H232.099L232.22 25.3672L232.219 25.3047C232.004 25.0131 231.306 24.5341 230.125 23.8676ZM225.955 21.8056L225.831 21.8681C226.637 22.4929 227.268 22.8053 227.727 22.8053L227.786 22.6804L227.785 22.6179C227.107 22.0764 226.496 21.8056 225.955 21.8056ZM218.193 46.9246L218.197 47.112C218.202 47.3619 218.788 47.4869 219.955 47.4869L220.016 47.4244L220.013 47.2995C219.466 47.0495 218.859 46.9246 218.193 46.9246ZM229.127 21.1182L228.944 21.3057C229.415 21.8889 229.88 22.1805 230.338 22.1805C230.328 21.7223 229.966 21.3682 229.252 21.1182H229.127ZM214.018 27.5542L214.028 27.9916H214.215C214.746 27.4917 215.008 27.096 215.002 26.8044L215 26.7419H214.688C214.442 26.9085 214.218 27.1793 214.018 27.5542ZM228.08 24.6799C228.339 25.0965 228.636 25.3047 228.969 25.3047L229.029 25.1798L229.026 25.0548C229.018 24.6799 228.847 24.4924 228.514 24.4924C228.223 24.5341 228.078 24.5966 228.08 24.6799ZM234.503 41.1134L234.504 41.1759C234.838 41.1759 235.122 40.8427 235.357 40.1762L235.355 40.0512H235.167C234.917 40.0512 234.696 40.4053 234.503 41.1134ZM215.26 24.305C215.635 24.305 215.983 24.055 216.306 23.5552L216.302 23.3677C215.598 23.576 215.25 23.8884 215.26 24.305ZM235.478 39.9887H235.791L236.045 40.1762C236.072 39.5097 235.961 39.2181 235.713 39.3014H235.588L235.516 38.864L235.478 39.9887ZM227.673 48.8616H227.735C228.48 48.6116 228.85 48.4034 228.847 48.2367L228.719 48.1118C228.14 48.3201 227.791 48.57 227.673 48.8616ZM212.565 43.9253L212.317 44.0502L212.32 44.1752L212.831 44.6751H213.081C213.075 44.3835 212.902 44.1336 212.565 43.9253ZM216.899 47.7993L216.901 47.8618H217.713L217.836 47.7369L217.706 47.5494H217.581C217.165 47.5494 216.937 47.6327 216.899 47.7993ZM236.806 32.1156L236.622 32.3031L236.628 32.553L236.821 32.8029L237.065 32.553L237.06 32.3031L236.868 32.1156H236.806ZM210.324 30.1161C210.533 30.1161 210.717 29.9703 210.877 29.6787L210.875 29.5537C210.5 29.5537 210.316 29.7412 210.324 30.1161ZM208.535 36.8645L208.414 37.0519C208.464 37.4268 208.53 37.6143 208.614 37.6143L208.737 37.5518L208.731 37.2394L208.597 36.8645H208.535ZM224.906 22.4304L224.907 22.4929L225.521 21.993L225.395 21.9306C224.984 22.1805 224.821 22.3471 224.906 22.4304ZM211.528 27.9916H211.59C211.756 27.9499 211.836 27.7833 211.829 27.4917H211.704C211.581 27.575 211.522 27.7417 211.528 27.9916ZM212.067 35.4898L211.823 35.7397L211.825 35.8647H212.013L212.134 35.6773L212.13 35.4898H212.067ZM215.548 26.0546H215.298L215.303 26.3045H215.428L215.551 26.1795L215.548 26.0546ZM257.333 18.8688C258.958 18.8688 260.358 20.0143 261.533 22.3055C261.742 22.3055 262.039 22.5762 262.426 23.1178L263.34 27.7417C263.059 28.2415 261.96 28.4915 260.044 28.4915H259.419C257.872 28.2415 257.089 27.7208 257.072 26.9294C257.059 26.3462 256.562 25.5339 255.581 24.4924C255.452 24.2842 254.553 24.18 252.887 24.18C251.303 24.18 249.396 24.5966 247.164 25.4297C245.617 27.096 244.604 28.3873 244.124 29.3038C244.572 36.4271 244.774 40.8843 244.73 42.6756C244.738 43.0505 244.992 43.2379 245.492 43.2379H246.992C247.66 43.2796 247.996 43.4046 248 43.6128L248.002 43.6753L248.269 44.4876L248.221 47.9868L247.857 48.4867L244.926 48.7991H244.676L243.435 49.174C238.639 49.0074 236.239 48.8199 236.235 48.6116C235.401 48.6116 234.976 48.2367 234.96 47.4869C234.86 46.7371 234.802 45.9665 234.784 45.175C234.767 44.3835 235.568 43.8628 237.188 43.6128C237.18 43.2796 237.739 43.113 238.864 43.113L239.05 43.0505L239.048 42.9255L238.297 25.8046C238.275 24.7632 237.992 24.2425 237.451 24.2425H237.076C236.576 24.2425 235.747 24.4716 234.591 24.9298L234.463 24.8049L234.46 24.6799C234.458 24.5966 234.623 24.4924 234.953 24.3675L234.951 24.2425C234.534 24.2425 234.3 23.0761 234.249 20.7433C234.166 20.7433 234.095 20.3684 234.037 19.6186C235.675 18.3273 237.411 17.6816 239.244 17.6816H240.807C241.432 17.6816 242.499 17.8899 244.008 18.3064L244.012 18.4939C243.65 19.0771 243.472 19.4936 243.477 19.7436L243.487 20.181C246.829 18.6813 251.444 18.2439 257.333 18.8688ZM241.165 28.304L241.172 28.6164C241.389 29.033 241.503 29.4704 241.513 29.9286C241.475 30.0953 241.431 30.9492 241.381 32.4905L241.561 34.9899H241.624C241.749 34.9899 241.873 33.0529 241.996 29.1788C242.08 29.1788 242.112 28.7622 242.094 27.9291C242.044 27.5542 241.936 27.3667 241.769 27.3667H241.644C241.315 27.575 241.156 27.8875 241.165 28.304ZM237.828 47.1745L237.017 47.237L237.02 47.3619C237.024 47.5702 237.631 47.6744 238.839 47.6744H240.714L241.15 47.6119C241.146 47.4036 240.038 47.2578 237.828 47.1745ZM248.079 21.5556L248.082 21.6806C248.457 21.6806 248.944 21.0766 249.542 19.8685L249.535 19.5561H249.473C248.397 19.8894 247.932 20.5559 248.079 21.5556ZM256.186 23.5552H256.498C256.706 23.5135 257.09 23.0136 257.653 22.0555L257.651 21.993C257.65 21.9097 257.565 21.8681 257.399 21.8681C256.698 22.2013 256.353 22.6387 256.365 23.1803C256.323 23.1803 256.263 23.3052 256.186 23.5552ZM241.842 24.9923H241.592L241.308 26.3045C241.313 26.5128 241.443 26.7211 241.697 26.9294H241.76C241.885 26.9294 241.982 26.6378 242.053 26.0546L241.842 24.9923ZM250.424 20.181L250.764 21.4307H251.264L251.235 20.1185L251.044 19.931H250.856C250.565 19.9727 250.421 20.056 250.424 20.181ZM237.369 46.1747L237.247 46.2997L237.312 46.4247H240.749L240.745 46.2372L238.619 46.1747H237.369ZM235.673 20.1185C236.013 20.4517 236.371 20.6184 236.746 20.6184L236.806 20.4934L236.796 20.056L236.54 19.7436C235.958 19.8269 235.669 19.9519 235.673 20.1185ZM242.566 46.6121L242.758 46.7996H243.695L243.94 46.5496C243.938 46.4663 243.832 46.383 243.622 46.2997C242.915 46.383 242.563 46.4872 242.566 46.6121ZM260.022 21.8056H259.835L259.838 21.9306C260.178 22.2638 260.473 22.4304 260.723 22.4304H260.911L260.908 22.3055C260.568 21.9722 260.272 21.8056 260.022 21.8056ZM238.52 18.8688H238.333L238.338 19.1187L238.723 19.5561H239.285L239.283 19.4312L238.52 18.8688ZM236.726 22.5554L236.729 22.6804H236.916C237.375 22.6804 237.623 22.5971 237.661 22.4304L237.532 22.243H237.407C237.032 22.243 236.805 22.3471 236.726 22.5554ZM252.662 19.6186L251.913 19.6811L251.915 19.7436L252.044 19.931H252.669C252.96 19.931 253.125 19.8477 253.163 19.6811L253.037 19.6186H252.662ZM243.228 39.7388L242.982 39.9262L242.993 40.4261H243.243L243.489 40.2387L243.481 39.8637L243.353 39.7388H243.228ZM235.877 46.5496L235.622 46.2997L235.502 46.5496L235.508 46.7996L235.637 46.987H235.887L235.877 46.5496ZM244.109 22.9303L243.861 22.9928L243.865 23.1803L244.119 23.3677H244.307L244.49 23.1803L244.486 22.9928L244.109 22.9303ZM253.91 19.5561L253.913 19.6811H254.351L254.597 19.4936L254.405 19.3062C254.074 19.3895 253.909 19.4728 253.91 19.5561ZM258.035 19.5561L257.913 19.6811L257.915 19.7436L258.044 19.931H258.294L258.415 19.7436L258.413 19.6811L258.285 19.5561H258.035ZM242.834 18.9313L242.525 19.0562L242.53 19.3062H242.843L243.025 19.0562L242.834 18.9313ZM242.671 20.056L242.426 20.2435L242.428 20.3684L242.556 20.4934L242.863 20.2435L242.859 20.056H242.671ZM257.973 25.2423L257.975 25.3672H258.1L258.346 25.1798L258.342 24.9923H258.28C258.074 25.1173 257.972 25.2006 257.973 25.2423ZM255.727 19.7436L255.481 19.931L255.483 19.9935H255.795L255.917 19.8685L255.915 19.7436H255.727ZM243.258 41.1134H243.133L243.138 41.3634H243.263L243.258 41.1134Z" fill="white"/>
</svg>
